<svg id="67d9a857-7a57-46aa-b07e-ed60d64541f5" data-name="Layer 1" xmlns="http://www.w3.org/2000/svg" viewBox="0 0 566.37 372.21"><defs><style>.\37 512cef1-83cc-490b-99c8-0f132c50b89a{fill:#f15a29;}.\30 01cb5e5-2912-4689-9763-1da97f16ef6c{fill:#fff;}</style></defs><title>Artboard 1</title><path class="7512cef1-83cc-490b-99c8-0f132c50b89a" d="M63.94,61v79.92c0,8.54-7.81,17.84-17.85,17.84V301.87c0,20.07-27.88,20.07-27.88,0V158.76C8.55,158.76,0,151,0,139.8V61c0-6.7,10-7.07,10,.36v58.37h8.17V60.63c0-6,9.67-6.7,9.67.37v58.73h8.55V61c0-6.7,9.29-7.07,9.29,0v58.73h8.55V61C54.27,54.3,63.94,53.93,63.94,61Z"/><path class="7512cef1-83cc-490b-99c8-0f132c50b89a" d="M566.37,79.21V301.5c0,20.07-27.5,19.7-27.5,0V213.4H524V79.21C524,48,566.37,48,566.37,79.21Z"/><circle class="7512cef1-83cc-490b-99c8-0f132c50b89a" cx="290.31" cy="186.1" r="186.1"/><circle class="001cb5e5-2912-4689-9763-1da97f16ef6c" cx="290.31" cy="186.1" r="168.02"/><path class="7512cef1-83cc-490b-99c8-0f132c50b89a" d="M432.61,275.4l.09-21.62h-3.25v-1.62h-1.62v-6.49L423.78,240l-4.86-.81-18.64,2.43-2.43,4.87h-1.62v20.25h-8.1V246.49l-4.05-4.87-5.67-.81h-6.49l-10.53,1.62L359,247.3l-1.62.81v12.15h-7.29l-3.24,1.62v9.72h-3.25V255.4h-9.72V253l-4-.81v-8.11l-4.05-1.62V215.69l-25.12-1.62H299l-10.53,3.25v47l-4.06.81-2.43-.81v-4.86l2.43-1.62h-1.62V255.4s-10.53-.81-11.34-.81-8.91,1.62-8.91,1.62h-1.62V244.05l-25.12-.81-6.48,1.62v4.06l-3.25.81v1.62l-3.24.81v21.06h-7.29V261.07h-2.43v-1.62h-2.43v-.81h-4.05l-4,.81v-1.62h-4.05v2.43l-7.3,2.43v-1.62H188.8v-1.62h-2.43v1.62l-1.62.81v.81h-.81v-.81H180.7v.81h-.81v-6.48l-.81-2.43v-4.05l-2.84-2.84H158.82l-2.43,1.22v1.62h-.81l-2.43.81v4.05l-.81,2.43v8.77l-10.68-1.38a168,168,0,0,0,291,11Z"/><path class="001cb5e5-2912-4689-9763-1da97f16ef6c" d="M290.31,356c-93.65,0-169.84-76.2-169.84-169.85S196.66,16.26,290.31,16.26,460.15,92.45,460.15,186.1,384,356,290.31,356Zm0-336c-91.63,0-166.19,74.56-166.19,166.19s74.56,166.19,166.19,166.19S456.5,277.74,456.5,186.1,382,19.91,290.31,19.91Z"/><path class="7512cef1-83cc-490b-99c8-0f132c50b89a" d="M209.9,71.17v1.68h-4.77V85.49h-2V72.85h-4.77V71.17Z"/><path class="7512cef1-83cc-490b-99c8-0f132c50b89a" d="M214.32,79.5v6h-2V71.17h2v6.67H221V71.17h2V85.49h-2v-6Z"/><path class="7512cef1-83cc-490b-99c8-0f132c50b89a" d="M236.18,85.49h-9.1V71.17h9.1v1.68h-7.06v4.78h6.16v1.68h-6.16v4.5h7.06Z"/><path class="7512cef1-83cc-490b-99c8-0f132c50b89a" d="M253.35,78.5h.19a9.61,9.61,0,0,1,7.16-3.23c5.82,0,11.87,4,11.87,10.9,0,6.42-5.17,11.13-12.75,11.13-8.31,0-13.53-6.51-13.53-15.94,0-9.65,4.8-17.41,14.27-17.41a14.72,14.72,0,0,1,11.27,4.76l-4.2,3.83a9.21,9.21,0,0,0-6.79-2.63C257.7,69.91,253.72,72.63,253.35,78.5Zm.42,7.34a5.62,5.62,0,0,0,5.87,5.64c3.23,0,6-2.31,6-5.36s-2.22-5.4-5.82-5.4C255.62,80.72,253.77,83.26,253.77,85.84Z"/><path class="7512cef1-83cc-490b-99c8-0f132c50b89a" d="M298.64,82.53l-1.11,3h-2.11l5.51-14.32h2.37l5.53,14.32h-2.07l-1.13-3ZM305,80.88l-2.91-7.74-2.86,7.74Z"/><path class="7512cef1-83cc-490b-99c8-0f132c50b89a" d="M313.15,74.9V85.5h-2V71.18h1.52l7.83,10.56V71.18h2.07V85.5H321Z"/><path class="7512cef1-83cc-490b-99c8-0f132c50b89a" d="M328.58,74.9V85.5h-2.05V71.18h1.52l7.83,10.56V71.18H338V85.5h-1.51Z"/><path class="7512cef1-83cc-490b-99c8-0f132c50b89a" d="M353.1,71.18v9c0,3.62-2.6,5.53-5.67,5.53s-5.67-1.91-5.67-5.53v-9h2.05v9a3.62,3.62,0,1,0,7.24,0v-9Z"/><path class="7512cef1-83cc-490b-99c8-0f132c50b89a" d="M358.05,82.53l-1.1,3h-2.11l5.5-14.32h2.38l5.52,14.32h-2.06l-1.13-3Zm6.39-1.65-2.91-7.74-2.86,7.74Z"/><path class="7512cef1-83cc-490b-99c8-0f132c50b89a" d="M379.11,85.5h-8.59V71.18h2V83.82h6.55Z"/><path class="7512cef1-83cc-490b-99c8-0f132c50b89a" d="M279.83,64.45v1h-3v7.91h-1.28V65.5h-3v-1Z"/><path class="7512cef1-83cc-490b-99c8-0f132c50b89a" d="M282.59,69.66v3.75h-1.28v-9h1.28v4.17h4.19V64.45h1.28v9h-1.28V69.66Z"/><path class="7512cef1-83cc-490b-99c8-0f132c50b89a" d="M172.34,138.48l-2.17.23L167,154h-6.63l3.08-14.6c-2.67.28-5.34.46-8,.6-2.3,6.26-3.73,12.76-3.73,16.63,0,2.35.6,2.16.65,2.58-3.18-.19-6.18-.28-6.18-5.16,0-3.09,1.66-8.34,4.33-13.82h-2.35c-5.85,0-8.29-2.26-8.29-4.24,0-3.69,5.76-4.15,8-4.15a20.82,20.82,0,0,1,6.73,1.11c4.65-7.33,10.55-13.54,15.94-13.54a10.42,10.42,0,0,1,3.68.69l-3.64,17,2.12-.27Zm-22.8-5.25c-3.6,0-5.76.83-5.76,2.3,0,1.3,1.89,2.58,5.89,2.58h1.85c.73-1.38,1.52-2.76,2.35-4.14A16.17,16.17,0,0,0,149.54,133.23Zm6.63,4.84c2.21,0,4.38-.14,6.63-.28-1.79-1-3.64-1.84-5.43-2.58Zm7.14-.88.46.28L167,122.54c-3.27,1.43-6.5,6.13-9.12,11.71C159.58,135.12,161.38,136.09,163.31,137.19Z"/><path class="7512cef1-83cc-490b-99c8-0f132c50b89a" d="M185.66,121.71l-5.3,24.88a8.21,8.21,0,0,0-.23,1.47c0,1,.51,1.71,2.3,1.71s4.24-2.58,6.09-4.05h1.56c-2.12,2.11-7.32,8.24-10.92,8.24s-5.71-1.57-5.71-5a11.22,11.22,0,0,1,.28-2.35l5.11-24Z"/><path class="7512cef1-83cc-490b-99c8-0f132c50b89a" d="M209.13,130.93l-3.31,15.66a8.06,8.06,0,0,0-.19,1.43c0,1,.46,1.75,2.31,1.75s4.23-2.58,6.08-4.05h1.56c-2.12,2.11-7.32,8.24-10.92,8.24-3.13,0-5.25-1.2-5.66-3.87-2.17,2-4.65,3.87-6.64,3.87-3.54,0-5.75-1.57-5.75-5a11.85,11.85,0,0,1,.27-2.35l3.32-15.66h6.63l-3.31,15.66a8.06,8.06,0,0,0-.19,1.43c0,1,.46,1.75,2.31,1.75a6.19,6.19,0,0,0,3.27-1.66,9.59,9.59,0,0,1,.27-1.52l3.32-15.66Z"/><path class="7512cef1-83cc-490b-99c8-0f132c50b89a" d="M242,146.59a7.65,7.65,0,0,0-.23,1.71,1.66,1.66,0,0,0,1.89,1.88c1.84,0,3.78-2.71,4.84-4.7h2.16c-2.11,2.49-6.26,8.48-9.85,8.48s-5.72-1.57-5.72-5a11.51,11.51,0,0,1,.28-2.35l1.75-8.29a5.83,5.83,0,0,0,.14-1.2c0-1.66-.88-2.72-2.12-2.72a4.7,4.7,0,0,0-2.67.83,6.46,6.46,0,0,1,.23,1.62,7.79,7.79,0,0,1-.09,1L229.16,154h-6.68l3.31-15.66a5.21,5.21,0,0,0,.14-1.2c0-1.66-.87-2.72-2.12-2.72a4.58,4.58,0,0,0-2.81,1L217,154h-6.63l4.88-23h6.64l-.51,2.44a10.86,10.86,0,0,1,5.94-2.44,5.65,5.65,0,0,1,4.56,3c2-1.61,4.47-3,6.73-3,2.53,0,5.29,2.67,5.29,5.8a7.58,7.58,0,0,1-.09,1.06Z"/><path class="7512cef1-83cc-490b-99c8-0f132c50b89a" d="M266,146.59a5.73,5.73,0,0,0-.23,1.47c0,1,.5,1.71,2.3,1.71s2.53-1.43,4.38-2.9H274c-2.12,2.12-5.62,7.09-9.21,7.09s-5.71-1.57-5.71-5a11.45,11.45,0,0,1,.27-2.35l1.75-8.29a5.21,5.21,0,0,0,.14-1.2c0-1.66-.87-2.72-2.12-2.72a4.93,4.93,0,0,0-2.9,1L252.29,154h-6.63l4.88-23h6.64l-.55,2.49a10.8,10.8,0,0,1,6-2.49c2.49,0,5.3,2.67,5.3,5.76a4.58,4.58,0,0,1-.09,1.1Z"/><path class="7512cef1-83cc-490b-99c8-0f132c50b89a" d="M279.06,146.59a6.34,6.34,0,0,0-.23,1.57c0,1,.37,1.7,1.66,1.7a3.67,3.67,0,0,0,1.2-.14c-1.29,4-3.23,4.24-4.8,4.24-3.27,0-4.69-2.16-4.69-5.07a10.36,10.36,0,0,1,.27-2.3l3.32-15.66h6.59Zm1-25.43a3.67,3.67,0,1,1,0,7.33,3.67,3.67,0,0,1,0-7.33Z"/><path class="7512cef1-83cc-490b-99c8-0f132c50b89a" d="M317.9,146.13c-2.44,6.73-8.57,8.11-12.9,8.11-4.7,0-10.09-2.31-10.09-11.75,0-10,3.27-23.08,15.53-23.08,4.28,0,8,1.71,8,6.17,0,2.45-.87,4.24-3.22,4.24a3.31,3.31,0,0,1-2.63-1.2c1.15-.32,2-2.62,2-3.77a3,3,0,0,0-3.18-3.27c-5.67,0-9.31,11.7-9.31,19.9,0,6,1.11,8.61,6.08,8.61,3.55,0,6.91-1.47,8.62-4.42Z"/><path class="7512cef1-83cc-490b-99c8-0f132c50b89a" d="M336.05,146.59a6.31,6.31,0,0,0-.23,1.47c0,1,.51,1.71,2.3,1.71s4.24-2.58,6.08-4.05h1.57c-2.12,2.11-7.33,8.24-10.92,8.24s-5.71-1.57-5.71-5a10.85,10.85,0,0,1,.28-2.35l1.75-8.29a5.78,5.78,0,0,0,.13-1.2c0-1.66-.87-2.72-2.12-2.72a4.67,4.67,0,0,0-2.85,1l-4,18.61h-6.64l6.68-31.32,6.82-.93-2.49,11.66c1.89-1.34,4-2.44,6-2.44,2.49,0,5.3,2.67,5.3,5.76a4.58,4.58,0,0,1-.09,1.1Z"/><path class="7512cef1-83cc-490b-99c8-0f132c50b89a" d="M363.61,130.93l-3.32,15.66a9,9,0,0,0-.18,1.43c0,1,.46,1.75,2.3,1.75s4.24-2.58,6.08-4.05h1.57c-2.12,2.11-7.32,8.24-10.92,8.24-3,0-5-1.1-5.62-3.5-1.38,1.89-3.45,3.78-6.26,3.78-4.43,0-5.72-3.13-5.72-5.85,0-7.93,2.86-17.42,12.07-17.42a5,5,0,0,1,3.09,1.16l.28-1.2Zm-15.85,16.21c0,2.77,1.52,3.27,2.68,3.27s2.07-1,2.94-2.3a11,11,0,0,1,.28-1.52l2.58-12.21a3.47,3.47,0,0,0-2.26-.83C350.53,133.55,347.76,140.88,347.76,147.14Z"/><path class="7512cef1-83cc-490b-99c8-0f132c50b89a" d="M376.58,130.93l-.5,2.3a9.17,9.17,0,0,1,5.43-2.3c2.07,0,3.32,1.2,3.32,2.95a3.53,3.53,0,0,1-3.46,3.59c-2.58,0-1.29-3-2.67-3a4.25,4.25,0,0,0-3.18,1.47L371.7,154h-6.63l4.88-23Z"/><path class="7512cef1-83cc-490b-99c8-0f132c50b89a" d="M392,130.93l-3.31,15.66a9.11,9.11,0,0,0-.19,1.43c0,1,.46,1.75,2.31,1.75s4.24-2.58,6.08-4.05h1.56c-2.12,2.11-7.32,8.24-10.91,8.24s-5.76-1.57-5.76-5a11.85,11.85,0,0,1,.27-2.35l3.32-15.66Zm-2.11-9.77a3.67,3.67,0,1,1,0,7.33,3.67,3.67,0,0,1,0-7.33Z"/><path class="7512cef1-83cc-490b-99c8-0f132c50b89a" d="M406.79,123.65s-.69,3.13-1.57,7.28H408l-.37,1.84h-2.77c-3.17,14.56-3.13,15-3.13,15.25,0,1.06.46,1.75,2.31,1.75s4.23-2.58,6.08-4.05h1.56c-2.12,2.11-7.32,8.24-10.92,8.24s-5.71-1.57-5.71-5c0-2.44,2.4-12.21,3.18-16.17H396.7l.37-1.84h1.52l1.38-6.36Z"/><path class="7512cef1-83cc-490b-99c8-0f132c50b89a" d="M420.21,130.93l-3.36,15.66a5.73,5.73,0,0,0-.23,1.47c0,1,.5,1.71,2.3,1.71,1.06,0,2.31-.83,3.5-1.84l3.6-17h6.68l-5.62,26.72c-1.39,6.58-5.35,7.83-8.39,7.83a5.17,5.17,0,0,1-5.43-5c0-4.28,3.59-5.62,8-6.91l.69-3.18c-2.08,1.89-4.43,3.55-6.27,3.55-3.59,0-5.71-1.57-5.71-5a11.45,11.45,0,0,1,.27-2.35l3.23-15.66Zm-2.58,30.45c.92,0,2.17-.88,2.72-3.6l.55-2.71c-2.9,1-5.11,2.3-5.11,4.79A1.87,1.87,0,0,0,417.63,161.38Z"/><path class="7512cef1-83cc-490b-99c8-0f132c50b89a" d="M171.53,178.19a9.59,9.59,0,0,0-7.75-3.74c-5.41,0-9.07,4.15-9.07,9.42a8.82,8.82,0,0,0,9.2,9.25,10.16,10.16,0,0,0,7.62-3.61V200.1a24.79,24.79,0,0,1-7.8,1.58,18.94,18.94,0,0,1-12.76-5,16.63,16.63,0,0,1-5.46-12.85,17.79,17.79,0,0,1,5-12.45,18.45,18.45,0,0,1,12.94-5.5,20.75,20.75,0,0,1,8.07,1.71Z"/><path class="7512cef1-83cc-490b-99c8-0f132c50b89a" d="M198.53,179.9V166.78h8.84v34h-8.84V186.85H185.77v13.93h-8.84v-34h8.84V179.9Z"/><path class="7512cef1-83cc-490b-99c8-0f132c50b89a" d="M221.33,194.87,219,200.78h-9.38l13.08-34h9.64l12.81,34h-9.42l-2.21-5.91Zm6.18-17.58h-.09l-3.65,10.82h7.35Z"/><path class="7512cef1-83cc-490b-99c8-0f132c50b89a" d="M256.44,193.3H267v7.48H247.61v-34h8.83Z"/><path class="7512cef1-83cc-490b-99c8-0f132c50b89a" d="M278.35,193.3H289v7.48H269.51v-34h8.84Z"/><path class="7512cef1-83cc-490b-99c8-0f132c50b89a" d="M300.21,174.27V180h10v7.48h-10v5.87h10.51v7.48H291.37v-34h19.35v7.49Z"/><path class="7512cef1-83cc-490b-99c8-0f132c50b89a" d="M315.85,166.78h8.84l16.18,20.79H341V166.78h8.84v34H341L324.78,180h-.09v20.83h-8.84Z"/><path class="7512cef1-83cc-490b-99c8-0f132c50b89a" d="M389.38,181.8c-.09,5-.45,9.2-3.47,13.43-3.34,4.65-8.35,6.68-14,6.68-10.68,0-18.12-7.26-18.12-17.95,0-11,7.48-18.3,18.44-18.3,7,0,12.4,3.15,15.33,9.51l-8.39,3.52c-1.22-3.25-3.78-5.41-7.35-5.41-5.81,0-8.83,5.54-8.83,10.73s3.15,10.64,9,10.64c3.83,0,6.76-2,7.12-5.91h-7.21V181.8Z"/><path class="7512cef1-83cc-490b-99c8-0f132c50b89a" d="M401.76,174.27V180h10v7.48h-10v5.87h10.51v7.48H392.93v-34h19.34v7.49Z"/></svg>