<?xml version="1.0" standalone="no"?>
<!DOCTYPE svg PUBLIC "-//W3C//DTD SVG 20010904//EN"
 "http://www.w3.org/TR/2001/REC-SVG-20010904/DTD/svg10.dtd">
<svg version="1.0" xmlns="http://www.w3.org/2000/svg"
 width="2000.000000pt" height="2000.000000pt" viewBox="0 0 2000.000000 2000.000000"
 preserveAspectRatio="xMidYMid meet">
<metadata>
Created by potrace 1.11, written by Peter Selinger 2001-2013
</metadata>
<g transform="translate(0.000000,2000.000000) scale(0.100000,-0.100000)"
fill="#000000" stroke="none">
<path d="M12688 17995 c-2 -1 -37 -5 -78 -9 -95 -8 -126 -13 -214 -37 -39 -10
-79 -21 -88 -23 -43 -11 -190 -82 -258 -124 -245 -152 -424 -377 -528 -662
-39 -107 -67 -224 -89 -370 -11 -73 -11 -8510 0 -8517 6 -3 212 -6 459 -5
l448 1 1 -37 c0 -20 2 -1281 3 -2802 2 -2218 4 -2775 15 -2815 7 -27 15 -60
17 -73 13 -69 73 -210 110 -259 13 -17 24 -34 24 -37 0 -4 12 -20 28 -38 180
-209 400 -310 672 -309 312 0 593 172 729 445 48 96 87 227 97 328 10 91 10
13999 1 14088 -4 36 -10 79 -12 95 -5 28 -8 43 -19 100 -15 76 -31 130 -62
214 -141 379 -426 658 -800 780 -94 30 -116 36 -224 51 -65 9 -226 20 -232 15z"/>
<path d="M5663 17970 c-90 -32 -148 -85 -186 -170 -20 -45 -20 -57 -21 -2565
-2 -2513 -1 -2559 29 -2724 9 -48 63 -197 92 -256 66 -131 200 -299 313 -390
51 -42 180 -116 259 -151 96 -42 267 -82 358 -85 36 -1 67 -7 69 -13 2 -6 5
-2038 7 -4516 l2 -4505 27 -95 c48 -173 118 -299 226 -408 252 -253 652 -317
986 -159 210 100 373 293 437 516 18 62 22 86 39 201 4 30 8 2058 9 4505 0
2448 0 4455 1 4460 0 6 26 11 58 13 178 8 389 85 551 200 60 43 188 164 239
226 104 125 198 326 239 506 4 19 9 1192 10 2607 l3 2572 -21 58 c-31 81 -70
127 -140 162 -55 27 -69 30 -142 28 -126 -4 -211 -58 -264 -165 l-28 -57 -3
-1862 -2 -1863 -263 0 -262 0 -1 1838 c0 1010 -4 1854 -7 1874 -15 86 -58 148
-139 204 -38 27 -48 29 -132 29 -82 0 -96 -3 -144 -29 -30 -17 -66 -46 -81
-65 -30 -38 -65 -101 -57 -101 3 0 1 -12 -5 -27 -8 -20 -11 -587 -11 -1875 l0
-1848 -264 0 -264 0 -1 1843 c0 1013 -3 1855 -5 1871 -12 72 -64 147 -132 190
-113 71 -297 45 -389 -55 -11 -13 -32 -44 -45 -69 l-23 -45 -3 -1867 -2 -1868
-250 0 c-138 0 -250 3 -251 8 0 4 -2 833 -3 1842 -2 1009 -6 1848 -10 1864
-21 86 -84 164 -167 207 -58 29 -168 34 -236 9z"/>
</g>
</svg>
