<?xml version="1.0" encoding="UTF-8"?><svg id="_13_circle" xmlns="http://www.w3.org/2000/svg" viewBox="0 0 630 630"><defs><style>.cls-1{fill:#fff;}.cls-2{fill:#f05a28;}</style></defs><circle class="cls-2" cx="315" cy="315" r="313"/><circle class="cls-1" cx="315" cy="315" r="282.58"/><path class="cls-2" d="M554.32,465.19l.15-36.37h-5.45v-2.73h-2.73v-10.9l-6.81-9.54-8.18-1.36-31.35,4.09-4.09,8.18h-2.73v34.07h-13.63v-34.07l-6.81-8.18-9.54-1.36h-10.9l-17.72,2.73-4.09,8.18-2.73,1.36v20.44h-12.26l-5.45,2.73v16.35h-5.45v-27.26h-16.35v-4.09l-6.81-1.36v-13.63l-6.81-2.73v-44.97l-42.24-2.72h-2.73l-17.72,5.45v79.04l-6.81,1.36-4.09-1.36v-8.18l4.09-2.72h-2.73v-4.09s-17.71-1.36-19.08-1.36-14.99,2.72-14.99,2.72h-2.73v-20.44l-42.25-1.36-10.9,2.72v6.81l-5.45,1.36v2.73l-5.45,1.36v35.43h-12.27v-20.44h-4.09v-2.73h-4.09v-1.36h-6.81l-6.82,1.36v-2.72h-6.81v4.09l-12.27,4.09v-2.73h-4.09v-2.73h-4.09v2.73l-2.73,1.36v1.36h-1.36v-1.36h-5.45v1.36h-1.36v-10.9l-1.36-4.09v-6.81l-4.77-4.77h-29.3l-4.09,2.05v2.72h-1.36l-4.09,1.36v6.81l-1.36,4.09v14.76l-17.96-2.33c47.35,89.71,141.51,150.88,250.01,150.88,100.86,0,189.32-52.88,239.32-132.39Z"/><path class="cls-1" d="M315,600.65c-157.51,0-285.65-128.14-285.65-285.65S157.49,29.35,315,29.35s285.65,128.14,285.65,285.65-128.14,285.65-285.65,285.65ZM315,35.49c-154.12,0-279.51,125.39-279.51,279.51s125.39,279.51,279.51,279.51,279.51-125.39,279.51-279.51S469.12,35.49,315,35.49Z"/><path class="cls-2" d="M167.7,124.1h-8.43v21.69h-3.1v-21.69h-8.43v-2.75h19.97v2.75Z"/><path class="cls-2" d="M190.87,121.34v24.44h-3.1v-11.12h-13.46v11.12h-3.1v-24.44h3.1v10.57h13.46v-10.57h3.1Z"/><path class="cls-2" d="M213.31,143.03v2.75h-16.59v-24.44h16.28v2.75h-13.18v7.92h11.46v2.58h-11.46v8.43h13.49Z"/><path class="cls-2" d="M260.97,148.77v7.64h-26.16v-7.64h8.98v-29.18c-.35.5-.92,1.06-1.72,1.67-.8.61-1.71,1.2-2.73,1.77-1.02.57-2.06,1.04-3.12,1.42-1.06.38-2.03.57-2.9.57v-7.83c1.17,0,2.36-.3,3.58-.92,1.21-.61,2.33-1.28,3.35-2.02,1.02-.74,1.85-1.42,2.51-2.05s1-.99,1.04-1.07h8.92v37.65h8.26Z"/><path class="cls-2" d="M279.22,156.98c-3.77,0-6.97-.76-9.6-2.27-2.63-1.52-4.46-3.68-5.5-6.51l4.62-5.56c.13.59.43,1.25.91,1.99.48.74,1.14,1.45,1.98,2.15.85.69,1.89,1.27,3.12,1.74,1.24.46,2.68.69,4.33.69,1.13,0,2.2-.14,3.22-.41,1.02-.27,1.92-.66,2.7-1.17.78-.5,1.4-1.13,1.85-1.86.46-.74.68-1.59.68-2.56,0-2.15-1.17-3.75-3.51-4.8-2.34-1.05-5.62-1.58-9.83-1.58h-2.15v-7.07h2.15c1.73,0,3.34-.12,4.82-.35,1.47-.23,2.75-.59,3.84-1.07,1.08-.48,1.93-1.11,2.54-1.86.61-.76.91-1.66.91-2.72,0-.93-.21-1.73-.62-2.4-.41-.67-.94-1.22-1.59-1.64-.65-.42-1.38-.74-2.18-.95-.8-.21-1.59-.32-2.38-.32-1.3,0-2.5.16-3.58.47-1.08.32-2.04.72-2.86,1.2-.82.48-1.53,1.03-2.12,1.64-.59.61-1.05,1.21-1.4,1.8l-5.6-6.13c.74-1.01,1.67-1.92,2.8-2.72,1.13-.8,2.39-1.47,3.77-2.02,1.39-.55,2.84-.97,4.36-1.26,1.52-.29,3.04-.44,4.56-.44,2.34,0,4.5.32,6.48.95,1.97.63,3.68,1.51,5.11,2.62,1.43,1.12,2.55,2.42,3.35,3.92.8,1.5,1.2,3.11,1.2,4.83,0,2.53-.78,4.6-2.34,6.22-1.56,1.62-3.69,2.73-6.38,3.32,1.47.25,2.81.73,4,1.42,1.19.69,2.21,1.56,3.06,2.59.85,1.03,1.5,2.19,1.95,3.47.46,1.29.68,2.62.68,4.01,0,2.15-.5,4.01-1.5,5.59-1,1.58-2.31,2.88-3.94,3.92-1.63,1.03-3.48,1.81-5.56,2.34-2.08.53-4.21.79-6.38.79Z"/><path class="cls-2" d="M344.98,121.36h2.62l9.98,24.44h-3.3l-2.89-7.16h-10.26l-2.86,7.16h-3.3l10.02-24.44ZM350.7,136.23l-4.41-11.29-4.54,11.29h8.95Z"/><path class="cls-2" d="M363.95,127.14v18.66h-3.1v-24.44h2.41l15.15,19.04v-19h3.1v24.41h-2.62l-14.94-18.66Z"/><path class="cls-2" d="M390.46,127.14v18.66h-3.1v-24.44h2.41l15.15,19.04v-19h3.1v24.41h-2.62l-14.94-18.66Z"/><path class="cls-2" d="M423.92,143.18c1.42,0,2.6-.28,3.55-.83.94-.55,1.69-1.27,2.25-2.15.56-.88.96-1.89,1.19-3.03.23-1.14.34-2.29.34-3.46v-12.36h3.1v12.36c0,1.65-.19,3.22-.57,4.7s-.98,2.78-1.81,3.91-1.9,2.01-3.22,2.67c-1.32.65-2.92.98-4.8.98s-3.59-.34-4.92-1.03c-1.33-.69-2.4-1.6-3.22-2.74-.82-1.14-1.4-2.44-1.76-3.92-.36-1.48-.53-3-.53-4.56v-12.36h3.1v12.36c0,1.22.12,2.39.36,3.53.24,1.14.64,2.14,1.21,3.01s1.31,1.58,2.24,2.12,2.09.81,3.49.81Z"/><path class="cls-2" d="M446.29,121.36h2.62l9.98,24.44h-3.3l-2.89-7.16h-10.26l-2.86,7.16h-3.3l10.02-24.44ZM452.01,136.23l-4.41-11.29-4.54,11.29h8.95Z"/><path class="cls-2" d="M462.16,145.8v-24.44h3.1v21.69h13.63v2.75h-16.73Z"/><path class="cls-2" d="M309.57,114.14h-5.27v13.56h-1.94v-13.56h-5.27v-1.72h12.48v1.72Z"/><path class="cls-2" d="M324.05,112.42v15.28h-1.94v-6.95h-8.41v6.95h-1.94v-15.28h1.94v6.61h8.41v-6.61h1.94Z"/><path class="cls-2" d="M116.59,234.91l-3.64.39-5.42,25.64h-11.16l5.19-24.56c-4.49.46-8.99.77-13.4,1.01-3.87,10.54-6.28,21.46-6.28,27.97,0,3.95,1.01,3.64,1.08,4.34-5.35-.31-10.38-.46-10.38-8.68,0-5.19,2.79-14.02,7.28-23.25h-3.95c-9.84,0-13.95-3.79-13.95-7.13,0-6.2,9.69-6.97,13.4-6.97,4.18,0,7.83.7,11.31,1.86,7.82-12.32,17.74-22.78,26.81-22.78,1.86,0,4.34.39,6.2,1.16l-6.12,28.67c1.16-.15,2.32-.31,3.57-.46l-.54,2.79ZM78.24,226.08c-6.04,0-9.69,1.4-9.69,3.87,0,2.17,3.18,4.34,9.92,4.34h3.1c1.24-2.33,2.56-4.65,3.95-6.97-2.64-.78-5.19-1.24-7.28-1.24ZM89.39,234.21c3.72-.08,7.36-.23,11.16-.46-3.02-1.63-6.12-3.1-9.14-4.34l-2.02,4.8ZM101.4,232.74l.77.46,5.35-25.1c-5.5,2.4-10.92,10.31-15.34,19.68,2.94,1.47,5.97,3.1,9.22,4.96Z"/><path class="cls-2" d="M138.99,206.71l-8.91,41.84c-.23,1.16-.39,1.86-.39,2.48,0,1.7.85,2.87,3.87,2.87s7.13-4.34,10.23-6.82h2.63c-3.56,3.56-12.32,13.87-18.36,13.87s-9.61-2.64-9.61-8.45c0-1.16.16-2.48.47-3.95l8.6-40.29,11.47-1.55Z"/><path class="cls-2" d="M178.47,222.21l-5.58,26.34c-.15.86-.31,1.71-.31,2.4,0,1.7.77,2.94,3.87,2.94s7.13-4.34,10.23-6.82h2.64c-3.57,3.56-12.32,13.87-18.36,13.87-5.27,0-8.83-2.01-9.53-6.51-3.64,3.41-7.83,6.51-11.16,6.51-5.97,0-9.68-2.64-9.68-8.45,0-1.16.15-2.48.46-3.95l5.58-26.34h11.16l-5.58,26.34c-.15.86-.31,1.71-.31,2.4,0,1.7.77,2.94,3.87,2.94,1.63,0,3.56-1.24,5.5-2.79.08-.78.23-1.63.46-2.56l5.58-26.34h11.16Z"/><path class="cls-2" d="M233.69,248.54c-.23.93-.39,1.94-.39,2.87,0,1.78.7,3.18,3.18,3.18,3.1,0,6.35-4.57,8.13-7.9h3.64c-3.57,4.19-10.54,14.26-16.58,14.26s-9.61-2.64-9.61-8.45c0-1.24.15-2.48.47-3.95l2.94-13.94c.15-.7.23-1.4.23-2.01,0-2.79-1.47-4.57-3.57-4.57-1.7,0-3.02.46-4.49,1.39.23.93.39,1.78.39,2.71,0,.54-.08,1.08-.15,1.63l-5.73,27.19h-11.23l5.58-26.34c.15-.7.23-1.4.23-2.01,0-2.79-1.47-4.57-3.57-4.57-1.86,0-3.18.54-4.72,1.63l-6.66,31.3h-11.16l8.21-38.74h11.16l-.85,4.11c3.1-2.25,6.66-4.11,9.99-4.11,2.87,0,5.97,2.09,7.67,5.11,3.41-2.71,7.52-5.11,11.31-5.11,4.26,0,8.91,4.49,8.91,9.76,0,.62-.08,1.16-.15,1.78l-3.18,14.8Z"/><path class="cls-2" d="M274.07,248.54c-.23.86-.39,1.71-.39,2.48,0,1.7.85,2.87,3.87,2.87s4.26-2.4,7.36-4.88h2.63c-3.56,3.56-9.45,11.93-15.49,11.93s-9.61-2.64-9.61-8.45c0-1.24.15-2.48.46-3.95l2.94-13.94c.15-.7.23-1.4.23-2.01,0-2.79-1.47-4.57-3.56-4.57-1.86,0-3.25.54-4.88,1.63l-6.59,31.3h-11.16l8.21-38.74h11.16l-.93,4.18c3.18-2.32,6.74-4.18,10.15-4.18,4.18,0,8.91,4.49,8.91,9.68,0,.62,0,1.24-.15,1.86l-3.18,14.8Z"/><path class="cls-2" d="M296.08,248.54c-.23.93-.39,1.78-.39,2.64,0,1.63.62,2.87,2.79,2.87.54,0,1.39,0,2.01-.23-2.17,6.66-5.42,7.13-8.06,7.13-5.5,0-7.9-3.64-7.9-8.52,0-1.24.15-2.56.46-3.88l5.58-26.34h11.08l-5.58,26.34ZM297.7,205.78c3.41,0,6.2,2.79,6.2,6.2s-2.79,6.12-6.2,6.12-6.12-2.71-6.12-6.12,2.71-6.2,6.12-6.2Z"/><path class="cls-2" d="M361.4,247.77c-4.11,11.31-14.41,13.64-21.69,13.64-7.9,0-16.97-3.87-16.97-19.76,0-16.89,5.5-38.82,26.11-38.82,7.21,0,13.48,2.87,13.48,10.38,0,4.11-1.47,7.13-5.42,7.13-1.24,0-2.94-.31-4.42-2.01,1.94-.54,3.41-4.42,3.41-6.35,0-1.24-.39-5.5-5.35-5.5-9.53,0-15.65,19.68-15.65,33.47,0,10.15,1.86,14.49,10.23,14.49,5.97,0,11.62-2.48,14.49-7.44l1.78.77Z"/><path class="cls-2" d="M391.92,248.54c-.23.93-.39,1.78-.39,2.48,0,1.7.85,2.87,3.87,2.87s7.13-4.34,10.23-6.82h2.63c-3.56,3.56-12.32,13.87-18.36,13.87s-9.61-2.64-9.61-8.45c0-1.24.15-2.48.47-3.95l2.94-13.94c.15-.7.23-1.4.23-2.01,0-2.79-1.47-4.57-3.57-4.57-1.86,0-3.25.54-4.8,1.63l-6.66,31.3h-11.16l11.23-52.68,11.47-1.55-4.18,19.6c3.18-2.25,6.74-4.11,10.07-4.11,4.19,0,8.91,4.49,8.91,9.68,0,.62,0,1.24-.15,1.86l-3.18,14.8Z"/><path class="cls-2" d="M438.28,222.21l-5.58,26.34c-.15.86-.31,1.71-.31,2.4,0,1.7.77,2.94,3.87,2.94s7.13-4.34,10.23-6.82h2.63c-3.56,3.56-12.32,13.87-18.36,13.87-5.04,0-8.44-1.86-9.45-5.89-2.32,3.18-5.81,6.35-10.54,6.35-7.44,0-9.61-5.27-9.61-9.84,0-13.33,4.8-29.29,20.3-29.29,1.86,0,3.8.78,5.19,1.94l.47-2.01h11.16ZM411.63,249.48c0,4.65,2.56,5.5,4.49,5.5,1.78,0,3.49-1.7,4.96-3.87.08-.78.23-1.63.47-2.56l4.34-20.53c-1.24-1.09-2.71-1.4-3.8-1.4-5.81,0-10.46,12.32-10.46,22.85Z"/><path class="cls-2" d="M460.1,222.21l-.85,3.87c2.79-2.17,5.89-3.87,9.14-3.87,3.49,0,5.58,2.01,5.58,4.96,0,2.71-2.01,6.04-5.81,6.04-4.34,0-2.17-5.11-4.49-5.11s-3.57.85-5.35,2.48l-6.43,30.37h-11.16l8.21-38.74h11.16Z"/><path class="cls-2" d="M486.03,222.21l-5.58,26.34c-.15.86-.31,1.71-.31,2.4,0,1.7.77,2.94,3.87,2.94s7.13-4.34,10.23-6.82h2.64c-3.57,3.56-12.32,13.87-18.36,13.87s-9.68-2.64-9.68-8.45c0-1.16.15-2.48.46-3.95l5.58-26.34h11.16ZM482.47,205.78c3.41,0,6.2,2.79,6.2,6.2s-2.79,6.12-6.2,6.12-6.12-2.71-6.12-6.12,2.71-6.2,6.12-6.2Z"/><path class="cls-2" d="M510.9,209.96s-1.16,5.27-2.63,12.24h4.65l-.62,3.1h-4.65c-5.35,24.48-5.27,25.26-5.27,25.64,0,1.78.77,2.94,3.87,2.94s7.13-4.34,10.23-6.82h2.63c-3.57,3.56-12.32,13.87-18.36,13.87s-9.61-2.64-9.61-8.45c0-4.11,4.03-20.53,5.35-27.19h-2.56l.62-3.1h2.56l2.32-10.69,11.47-1.55Z"/><path class="cls-2" d="M533.48,222.21l-5.66,26.34c-.23.86-.39,1.71-.39,2.48,0,1.7.85,2.87,3.88,2.87,1.78,0,3.87-1.4,5.89-3.1l6.04-28.59h11.23l-9.45,44.94c-2.33,11.08-8.99,13.17-14.1,13.17-4.73,0-9.14-3.33-9.14-8.37,0-7.21,6.04-9.45,13.4-11.62l1.16-5.35c-3.48,3.18-7.44,5.97-10.54,5.97-6.04,0-9.61-2.64-9.61-8.45,0-1.24.15-2.48.46-3.95l5.42-26.34h11.39ZM529.14,273.42c1.55,0,3.64-1.47,4.57-6.04l.93-4.57c-4.88,1.63-8.6,3.87-8.6,8.06,0,1.09,1.39,2.56,3.1,2.56Z"/><path class="cls-2" d="M115.23,301.69c-3.03-4.1-7.96-6.29-13.04-6.29-9.1,0-15.24,6.98-15.24,15.85s6.22,15.55,15.47,15.55c4.85,0,9.71-2.35,12.82-6.07v17.82c-4.93,1.52-8.49,2.66-13.12,2.66-7.96,0-15.54-3.03-21.46-8.42-6.29-5.69-9.18-13.12-9.18-21.61,0-7.81,2.96-15.32,8.42-20.93,5.61-5.76,13.73-9.25,21.77-9.25,4.78,0,9.18,1.06,13.57,2.88v17.82Z"/><path class="cls-2" d="M160.63,304.57v-22.06h14.87v57.18h-14.87v-23.43h-21.46v23.43h-14.86v-57.18h14.86v22.06h21.46Z"/><path class="cls-2" d="M198.99,329.75l-3.94,9.93h-15.77l21.99-57.18h16.23l21.54,57.18h-15.85l-3.71-9.93h-20.48ZM209.38,300.18h-.15l-6.14,18.2h12.36l-6.07-18.2Z"/><path class="cls-2" d="M258.04,327.1h17.82v12.59h-32.68v-57.18h14.86v44.59Z"/><path class="cls-2" d="M294.89,327.1h17.82v12.59h-32.68v-57.18h14.86v44.59Z"/><path class="cls-2" d="M331.65,295.09v9.56h16.76v12.59h-16.76v9.86h17.67v12.59h-32.53v-57.18h32.53v12.59h-17.67Z"/><path class="cls-2" d="M357.95,282.51h14.86l27.22,34.96h.15v-34.96h14.86v57.18h-14.86l-27.22-35.04h-.15v35.04h-14.86v-57.18Z"/><path class="cls-2" d="M481.61,307.76c-.15,8.34-.76,15.47-5.84,22.6-5.61,7.81-14.03,11.22-23.59,11.22-17.97,0-30.48-12.21-30.48-30.18s12.59-30.79,31.01-30.79c11.76,0,20.85,5.31,25.78,16l-14.1,5.92c-2.05-5.46-6.37-9.1-12.36-9.1-9.78,0-14.86,9.33-14.86,18.05s5.31,17.9,15.09,17.9c6.45,0,11.37-3.34,11.98-9.94h-12.13v-11.68h29.5Z"/><path class="cls-2" d="M502.45,295.09v9.56h16.76v12.59h-16.76v9.86h17.67v12.59h-32.53v-57.18h32.53v12.59h-17.67Z"/></svg>