<?xml version="1.0" encoding="UTF-8"?>
<svg id="Layer_1" xmlns="http://www.w3.org/2000/svg" baseProfile="tiny" version="1.2" viewBox="0 0 566.4 372.2">
  <!-- Generator: Adobe Illustrator 29.4.0, SVG Export Plug-In . SVG Version: 2.1.0 Build 152)  -->
  <path d="M63.9,61v79.9c0,8.5-7.8,17.8-17.8,17.8v143.1c0,20.1-27.9,20.1-27.9,0v-143.1c-9.7,0-18.2-7.8-18.2-19V61c0-6.7,10-7.1,10,.4v58.4h8.2v-59.1c0-5.9,9.7-6.7,9.7.4v58.7h8.5v-58.7c0-6.7,9.3-7.1,9.3,0v58.7h8.5v-58.7c0-6.7,9.7-7.1,9.7,0Z" fill="#f15a29"/>
  <path d="M566.4,79.2v222.3c0,20.1-27.5,19.7-27.5,0v-88.1h-14.9V79.2c0-31.2,42.4-31.2,42.4,0Z" fill="#f15a29"/>
  <circle cx="290.3" cy="186.1" r="186.1" fill="#f15a29"/>
  <g>
    <circle cx="290.3" cy="186.1" r="168" fill="#fff"/>
    <path d="M432.6,275.4v-21.6c0,0-3.2,0-3.2,0v-1.6h-1.6v-6.5l-4.1-5.7-4.9-.8-18.6,2.4-2.4,4.9h-1.6v20.3h-8.1v-20.3l-4.1-4.9-5.7-.8h-6.5l-10.5,1.6-2.4,4.9-1.6.8v12.2h-7.3l-3.2,1.6v9.7h-3.2v-16.2h-9.7v-2.4l-4.1-.8v-8.1l-4.1-1.6v-26.7l-25.1-1.6h-1.6l-10.5,3.2v47l-4.1.8-2.4-.8v-4.9l2.4-1.6h-1.6v-2.4s-10.5-.8-11.3-.8-8.9,1.6-8.9,1.6h-1.6v-12.2l-25.1-.8-6.5,1.6v4.1l-3.2.8v1.6l-3.2.8v21.1h-7.3v-12.2h-2.4v-1.6h-2.4v-.8h-4.1l-4.1.8v-1.6h-4.1v2.4l-7.3,2.4v-1.6h-2.4v-1.6h-2.4v1.6l-1.6.8v.8h-.8v-.8h-3.2v.8h-.8v-6.5l-.8-2.4v-4.1l-2.8-2.8h-17.4l-2.4,1.2v1.6h-.8l-2.4.8v4.1l-.8,2.4v8.8l-10.7-1.4c28.2,53.3,84.1,89.7,148.6,89.7s112.6-31.4,142.3-78.7Z" fill="#f15a29"/>
    <path d="M290.3,355.9c-93.7,0-169.8-76.2-169.8-169.8S196.7,16.3,290.3,16.3s169.8,76.2,169.8,169.8-76.2,169.8-169.8,169.8ZM290.3,19.9c-91.6,0-166.2,74.6-166.2,166.2s74.6,166.2,166.2,166.2,166.2-74.6,166.2-166.2S381.9,19.9,290.3,19.9Z" fill="#fff"/>
  </g>
  <text transform="translate(190.5 85.5)" fill="#f15a29" font-family="Raleway-Medium, Raleway" font-size="20.5" font-weight="500"><tspan x="0" y="0">THE</tspan></text>
  <text transform="translate(239.8 91.8) scale(1 1)" fill="#f15a29" font-family="Raleway-Bold, Raleway" font-size="37.6" font-weight="700"><tspan x="0" y="0">13</tspan></text>
  <text transform="translate(301.7 85.5)" fill="#f15a29" font-family="Raleway-Medium, Raleway" font-size="20.5" font-weight="500"><tspan x="0" y="0">ANNUAL</tspan></text>
  <text transform="translate(279.5 74.7)" fill="#f15a29" font-family="Raleway-Medium, Raleway" font-size="12.8" font-weight="500"><tspan x="0" y="0">TH</tspan></text>
  <g>
    <g>
      <path d="M172.3,138.5l-2.2.2-3.2,15.2h-6.6l3.1-14.6c-2.7.3-5.3.5-8,.6-2.3,6.3-3.7,12.8-3.7,16.6s.6,2.2.6,2.6c-3.2-.2-6.2-.3-6.2-5.2s1.7-8.3,4.3-13.8h-2.3c-5.9,0-8.3-2.3-8.3-4.2,0-3.7,5.8-4.1,8-4.1s4.7.4,6.7,1.1c4.7-7.3,10.5-13.5,15.9-13.5s2.6.2,3.7.7l-3.6,17c.7,0,1.4-.2,2.1-.3l-.3,1.7ZM149.5,133.2c-3.6,0-5.8.8-5.8,2.3s1.9,2.6,5.9,2.6h1.8c.7-1.4,1.5-2.8,2.3-4.1-1.6-.5-3.1-.7-4.3-.7ZM156.2,138.1c2.2,0,4.4-.1,6.6-.3-1.8-1-3.6-1.8-5.4-2.6l-1.2,2.9ZM163.3,137.2l.5.3,3.2-14.9c-3.3,1.4-6.5,6.1-9.1,11.7,1.7.9,3.5,1.8,5.5,2.9Z" fill="#f15a29"/>
      <path d="M185.7,121.7l-5.3,24.9c-.1.7-.2,1.1-.2,1.5,0,1,.5,1.7,2.3,1.7s4.2-2.6,6.1-4.1h1.6c-2.1,2.1-7.3,8.2-10.9,8.2s-5.7-1.6-5.7-5,0-1.5.3-2.3l5.1-24,6.8-.9Z" fill="#f15a29"/>
      <path d="M209.1,130.9l-3.3,15.7c0,.5-.2,1-.2,1.4,0,1,.5,1.8,2.3,1.8s4.2-2.6,6.1-4.1h1.6c-2.1,2.1-7.3,8.2-10.9,8.2s-5.3-1.2-5.7-3.9c-2.2,2-4.7,3.9-6.6,3.9-3.5,0-5.8-1.6-5.8-5s0-1.5.3-2.3l3.3-15.7h6.6l-3.3,15.7c0,.5-.2,1-.2,1.4,0,1,.5,1.8,2.3,1.8s2.1-.7,3.3-1.7c0-.5.1-1,.3-1.5l3.3-15.7h6.6Z" fill="#f15a29"/>
      <path d="M242,146.6c-.1.6-.2,1.2-.2,1.7,0,1.1.4,1.9,1.9,1.9s3.8-2.7,4.8-4.7h2.2c-2.1,2.5-6.3,8.5-9.9,8.5s-5.7-1.6-5.7-5,0-1.5.3-2.3l1.7-8.3c0-.4.1-.8.1-1.2,0-1.7-.9-2.7-2.1-2.7s-1.8.3-2.7.8c.1.6.2,1.1.2,1.6s0,.6,0,1l-3.4,16.2h-6.7l3.3-15.7c0-.4.1-.8.1-1.2,0-1.7-.9-2.7-2.1-2.7s-1.9.3-2.8,1l-4,18.6h-6.6l4.9-23h6.6l-.5,2.4c1.8-1.3,4-2.4,5.9-2.4s3.5,1.2,4.6,3c2-1.6,4.5-3,6.7-3s5.3,2.7,5.3,5.8,0,.7,0,1.1l-1.9,8.8Z" fill="#f15a29"/>
      <path d="M266,146.6c-.1.5-.2,1-.2,1.5,0,1,.5,1.7,2.3,1.7s2.5-1.4,4.4-2.9h1.6c-2.1,2.1-5.6,7.1-9.2,7.1s-5.7-1.6-5.7-5,0-1.5.3-2.3l1.8-8.3c0-.4.1-.8.1-1.2,0-1.7-.9-2.7-2.1-2.7s-1.9.3-2.9,1l-3.9,18.6h-6.6l4.9-23h6.6l-.6,2.5c1.9-1.4,4-2.5,6-2.5s5.3,2.7,5.3,5.8,0,.7,0,1.1l-1.9,8.8Z" fill="#f15a29"/>
      <path d="M279.1,146.6c-.1.6-.2,1.1-.2,1.6,0,1,.4,1.7,1.7,1.7s.8,0,1.2-.1c-1.3,4-3.2,4.2-4.8,4.2-3.3,0-4.7-2.2-4.7-5.1s0-1.5.3-2.3l3.3-15.7h6.6l-3.3,15.7ZM280,121.2c2,0,3.7,1.7,3.7,3.7s-1.7,3.6-3.7,3.6-3.6-1.6-3.6-3.6,1.6-3.7,3.6-3.7Z" fill="#f15a29"/>
      <path d="M317.9,146.1c-2.4,6.7-8.6,8.1-12.9,8.1s-10.1-2.3-10.1-11.7,3.3-23.1,15.5-23.1,8,1.7,8,6.2-.9,4.2-3.2,4.2-1.8-.2-2.6-1.2c1.2-.3,2-2.6,2-3.8s-.2-3.3-3.2-3.3c-5.7,0-9.3,11.7-9.3,19.9s1.1,8.6,6.1,8.6,6.9-1.5,8.6-4.4l1.1.5Z" fill="#f15a29"/>
      <path d="M336,146.6c-.1.6-.2,1.1-.2,1.5,0,1,.5,1.7,2.3,1.7s4.2-2.6,6.1-4.1h1.6c-2.1,2.1-7.3,8.2-10.9,8.2s-5.7-1.6-5.7-5,0-1.5.3-2.3l1.7-8.3c0-.4.1-.8.1-1.2,0-1.7-.9-2.7-2.1-2.7s-1.9.3-2.9,1l-4,18.6h-6.6l6.7-31.3,6.8-.9-2.5,11.7c1.9-1.3,4-2.4,6-2.4s5.3,2.7,5.3,5.8,0,.7,0,1.1l-1.9,8.8Z" fill="#f15a29"/>
      <path d="M363.6,130.9l-3.3,15.7c0,.5-.2,1-.2,1.4,0,1,.5,1.8,2.3,1.8s4.2-2.6,6.1-4.1h1.6c-2.1,2.1-7.3,8.2-10.9,8.2s-5-1.1-5.6-3.5c-1.4,1.9-3.5,3.8-6.3,3.8-4.4,0-5.7-3.1-5.7-5.8,0-7.9,2.9-17.4,12.1-17.4s2.3.5,3.1,1.2l.3-1.2h6.6ZM347.8,147.1c0,2.8,1.5,3.3,2.7,3.3s2.1-1,2.9-2.3c0-.5.1-1,.3-1.5l2.6-12.2c-.7-.6-1.6-.8-2.3-.8-3.5,0-6.2,7.3-6.2,13.6Z" fill="#f15a29"/>
      <path d="M376.6,130.9l-.5,2.3c1.7-1.3,3.5-2.3,5.4-2.3s3.3,1.2,3.3,2.9-1.2,3.6-3.5,3.6-1.3-3-2.7-3-2.1.5-3.2,1.5l-3.8,18.1h-6.6l4.9-23h6.6Z" fill="#f15a29"/>
      <path d="M392,130.9l-3.3,15.7c0,.5-.2,1-.2,1.4,0,1,.5,1.8,2.3,1.8s4.2-2.6,6.1-4.1h1.6c-2.1,2.1-7.3,8.2-10.9,8.2s-5.8-1.6-5.8-5,0-1.5.3-2.3l3.3-15.7h6.6ZM389.9,121.2c2,0,3.7,1.7,3.7,3.7s-1.7,3.6-3.7,3.6-3.6-1.6-3.6-3.6,1.6-3.7,3.6-3.7Z" fill="#f15a29"/>
      <path d="M406.8,123.6s-.7,3.1-1.6,7.3h2.8l-.4,1.8h-2.8c-3.2,14.6-3.1,15-3.1,15.2,0,1.1.5,1.8,2.3,1.8s4.2-2.6,6.1-4.1h1.6c-2.1,2.1-7.3,8.2-10.9,8.2s-5.7-1.6-5.7-5,2.4-12.2,3.2-16.2h-1.5l.4-1.8h1.5l1.4-6.4,6.8-.9Z" fill="#f15a29"/>
      <path d="M420.2,130.9l-3.4,15.7c-.1.5-.2,1-.2,1.5,0,1,.5,1.7,2.3,1.7s2.3-.8,3.5-1.8l3.6-17h6.7l-5.6,26.7c-1.4,6.6-5.3,7.8-8.4,7.8s-5.4-2-5.4-5c0-4.3,3.6-5.6,8-6.9l.7-3.2c-2.1,1.9-4.4,3.5-6.3,3.5-3.6,0-5.7-1.6-5.7-5s0-1.5.3-2.3l3.2-15.7h6.8ZM417.6,161.4c.9,0,2.2-.9,2.7-3.6l.6-2.7c-2.9,1-5.1,2.3-5.1,4.8s.8,1.5,1.8,1.5Z" fill="#f15a29"/>
    </g>
    <g>
      <path d="M171.5,178.2c-1.8-2.4-4.7-3.7-7.8-3.7-5.4,0-9.1,4.1-9.1,9.4s3.7,9.2,9.2,9.2,5.8-1.4,7.6-3.6v10.6c-2.9.9-5,1.6-7.8,1.6-4.7,0-9.2-1.8-12.8-5-3.7-3.4-5.5-7.8-5.5-12.9s1.8-9.1,5-12.4c3.3-3.4,8.2-5.5,12.9-5.5s5.5.6,8.1,1.7v10.6Z" fill="#f15a29"/>
      <path d="M198.5,179.9v-13.1h8.8v34h-8.8v-13.9h-12.8v13.9h-8.8v-34h8.8v13.1h12.8Z" fill="#f15a29"/>
      <path d="M221.3,194.9l-2.3,5.9h-9.4l13.1-34h9.6l12.8,34h-9.4l-2.2-5.9h-12.2ZM227.5,177.3h0l-3.7,10.8h7.3l-3.6-10.8Z" fill="#f15a29"/>
      <path d="M256.4,193.3h10.6v7.5h-19.4v-34h8.8v26.5Z" fill="#f15a29"/>
      <path d="M278.4,193.3h10.6v7.5h-19.4v-34h8.8v26.5Z" fill="#f15a29"/>
      <path d="M300.2,174.3v5.7h10v7.5h-10v5.9h10.5v7.5h-19.3v-34h19.3v7.5h-10.5Z" fill="#f15a29"/>
      <path d="M315.8,166.8h8.8l16.2,20.8h0v-20.8h8.8v34h-8.8l-16.2-20.8h0v20.8h-8.8v-34Z" fill="#f15a29"/>
      <path d="M389.4,181.8c0,5-.4,9.2-3.5,13.4-3.3,4.6-8.3,6.7-14,6.7-10.7,0-18.1-7.3-18.1-17.9s7.5-18.3,18.4-18.3,12.4,3.2,15.3,9.5l-8.4,3.5c-1.2-3.2-3.8-5.4-7.4-5.4-5.8,0-8.8,5.5-8.8,10.7s3.2,10.6,9,10.6,6.8-2,7.1-5.9h-7.2v-6.9h17.5Z" fill="#f15a29"/>
      <path d="M401.8,174.3v5.7h10v7.5h-10v5.9h10.5v7.5h-19.3v-34h19.3v7.5h-10.5Z" fill="#f15a29"/>
    </g>
  </g>
</svg>