<?xml version="1.0" encoding="UTF-8"?><svg id="_13_wide" xmlns="http://www.w3.org/2000/svg" viewBox="0 0 1200 630"><defs><style>.cls-1{fill:#fff;}.cls-2{fill:#f05a28;}</style></defs><path class="cls-2" d="M273.26,128.38v119.22c0,12.75-11.65,26.61-26.62,26.61v213.48c0,29.95-41.59,29.95-41.59,0v-213.48c-14.42,0-27.17-11.64-27.17-28.28v-117.55c0-9.98,14.97-10.54,14.97.55v87.06h12.2v-88.17c0-8.88,14.42-9.98,14.42.55v87.61h12.75v-87.61c0-9.98,13.86-10.54,13.86,0v87.61h12.75v-87.61c0-9.98,14.42-10.54,14.42,0Z"/><path class="cls-2" d="M1022.75,155.54v331.59c0,29.95-41.03,29.39-41.03,0v-131.41h-22.18v-200.18c0-46.58,63.21-46.58,63.21,0Z"/><circle class="cls-2" cx="610.95" cy="315" r="277.61"/><circle class="cls-1" cx="610.95" cy="315" r="250.63"/><path class="cls-2" d="M823.21,448.21l.13-32.26h-4.83v-2.42h-2.42v-9.67l-6.04-8.46-7.25-1.21-27.8,3.63-3.62,7.25h-2.42v30.22h-12.09v-30.22l-6.04-7.25-8.46-1.21h-9.67l-15.71,2.42-3.62,7.25-2.42,1.21v18.13h-10.88l-4.83,2.42v14.51h-4.83v-24.18h-14.51v-3.63l-6.04-1.21v-12.09l-6.04-2.42v-39.89l-37.47-2.42h-2.42l-15.71,4.83v70.1l-6.04,1.21-3.63-1.21v-7.25l3.63-2.42h-2.42v-3.63s-15.71-1.21-16.92-1.21-13.3,2.42-13.3,2.42h-2.42v-18.13l-37.47-1.21-9.67,2.42v6.04l-4.84,1.21v2.42l-4.83,1.21v31.43h-10.88v-18.13h-3.63v-2.42h-3.62v-1.21h-6.04l-6.05,1.21v-2.42h-6.04v3.63l-10.88,3.63v-2.42h-3.63v-2.42h-3.62v2.42l-2.42,1.21v1.21h-1.21v-1.21h-4.84v1.21h-1.21v-9.67l-1.21-3.63v-6.04l-4.23-4.23h-25.99l-3.63,1.81v2.42h-1.21l-3.63,1.21v6.04l-1.21,3.62v13.09l-15.93-2.07c42,79.57,125.52,133.83,221.74,133.83,89.46,0,167.91-46.9,212.26-117.42Z"/><path class="cls-1" d="M610.95,568.36c-139.7,0-253.36-113.66-253.36-253.36s113.66-253.36,253.36-253.36,253.36,113.66,253.36,253.36-113.66,253.36-253.36,253.36ZM610.95,67.09c-136.69,0-247.91,111.21-247.91,247.91s111.21,247.91,247.91,247.91,247.91-111.21,247.91-247.91-111.21-247.91-247.91-247.91Z"/><path class="cls-2" d="M480.3,145.68h-7.48v19.23h-2.75v-19.23h-7.48v-2.44h17.71v2.44Z"/><path class="cls-2" d="M500.85,143.24v21.68h-2.75v-9.86h-11.94v9.86h-2.75v-21.68h2.75v9.37h11.94v-9.37h2.75Z"/><path class="cls-2" d="M520.75,162.47v2.44h-14.72v-21.68h14.44v2.44h-11.69v7.02h10.17v2.29h-10.17v7.48h11.97Z"/><path class="cls-2" d="M562.98,167.56v6.78h-23.2v-6.78h7.97v-25.88c-.31.45-.82.94-1.53,1.48-.71.54-1.52,1.06-2.42,1.57-.9.5-1.83.92-2.77,1.26-.94.34-1.8.5-2.57.5v-6.95c1.04,0,2.1-.27,3.17-.81,1.08-.54,2.07-1.14,2.97-1.79.9-.65,1.64-1.26,2.22-1.82.58-.56.88-.88.92-.95h7.91v33.39h7.33Z"/><path class="cls-2" d="M579.26,174.85c-3.35,0-6.19-.67-8.51-2.02-2.33-1.34-3.95-3.27-4.88-5.77l4.1-4.93c.12.52.38,1.11.81,1.76.42.65,1.01,1.29,1.76,1.9s1.67,1.13,2.77,1.54c1.1.41,2.38.62,3.84.62,1,0,1.95-.12,2.86-.36.9-.24,1.7-.59,2.4-1.04s1.24-1,1.65-1.65c.4-.65.61-1.41.61-2.27,0-1.9-1.04-3.32-3.12-4.26-2.08-.93-4.98-1.4-8.72-1.4h-1.9v-6.27h1.9c1.54,0,2.96-.1,4.27-.31,1.31-.2,2.44-.52,3.41-.95.96-.43,1.71-.98,2.25-1.65.54-.67.81-1.48.81-2.41,0-.82-.18-1.53-.55-2.13-.37-.6-.84-1.08-1.41-1.46-.58-.37-1.22-.65-1.93-.84-.71-.19-1.41-.28-2.11-.28-1.15,0-2.21.14-3.17.42-.96.28-1.81.64-2.54,1.06-.73.43-1.36.92-1.88,1.46-.52.54-.93,1.07-1.24,1.6l-4.96-5.43c.65-.9,1.48-1.7,2.48-2.41,1-.71,2.12-1.31,3.35-1.79,1.23-.49,2.52-.86,3.87-1.12,1.35-.26,2.69-.39,4.04-.39,2.08,0,3.99.28,5.74.84,1.75.56,3.26,1.34,4.53,2.32,1.27.99,2.26,2.15,2.97,3.47.71,1.33,1.07,2.75,1.07,4.29,0,2.24-.69,4.08-2.08,5.52-1.39,1.44-3.27,2.42-5.66,2.94,1.31.22,2.49.64,3.55,1.26,1.06.62,1.96,1.38,2.71,2.3.75.92,1.33,1.94,1.73,3.08.4,1.14.61,2.32.61,3.56,0,1.9-.44,3.56-1.33,4.96-.89,1.4-2.05,2.56-3.49,3.47-1.44.92-3.09,1.61-4.93,2.07-1.85.47-3.73.7-5.66.7Z"/><path class="cls-2" d="M637.54,143.25h2.32l8.85,21.68h-2.93l-2.56-6.35h-9.1l-2.53,6.35h-2.93l8.88-21.68ZM642.61,156.44l-3.91-10.01-4.03,10.01h7.94Z"/><path class="cls-2" d="M654.37,148.38v16.55h-2.75v-21.68h2.14l13.43,16.88v-16.85h2.75v21.65h-2.32l-13.25-16.55Z"/><path class="cls-2" d="M677.88,148.38v16.55h-2.75v-21.68h2.14l13.43,16.88v-16.85h2.75v21.65h-2.32l-13.25-16.55Z"/><path class="cls-2" d="M707.55,162.61c1.26,0,2.31-.24,3.14-.73.83-.49,1.5-1.12,2-1.91.5-.78.85-1.68,1.05-2.69.2-1.01.31-2.03.31-3.07v-10.96h2.75v10.96c0,1.47-.17,2.85-.5,4.17-.34,1.31-.87,2.47-1.6,3.47-.73,1-1.68,1.79-2.86,2.37-1.17.58-2.59.87-4.26.87s-3.19-.31-4.37-.92c-1.18-.61-2.13-1.42-2.85-2.43-.72-1.01-1.24-2.17-1.56-3.48-.32-1.31-.47-2.66-.47-4.05v-10.96h2.75v10.96c0,1.08.11,2.12.32,3.13.21,1.01.57,1.9,1.07,2.67.5.77,1.16,1.4,1.98,1.88.82.48,1.86.72,3.1.72Z"/><path class="cls-2" d="M727.4,143.25h2.32l8.85,21.68h-2.93l-2.56-6.35h-9.1l-2.53,6.35h-2.93l8.88-21.68ZM732.47,156.44l-3.91-10.01-4.03,10.01h7.94Z"/><path class="cls-2" d="M741.47,164.93v-21.68h2.75v19.24h12.09v2.44h-14.84Z"/><path class="cls-2" d="M606.14,136.85h-4.68v12.02h-1.72v-12.02h-4.68v-1.53h11.07v1.53Z"/><path class="cls-2" d="M618.99,135.32v13.55h-1.72v-6.17h-7.46v6.17h-1.72v-13.55h1.72v5.86h7.46v-5.86h1.72Z"/><path class="cls-2" d="M434.96,243.96l-3.23.34-4.81,22.75h-9.89l4.6-21.78c-3.99.41-7.97.69-11.89.89-3.44,9.34-5.57,19.03-5.57,24.81,0,3.5.89,3.23.96,3.85-4.74-.27-9.21-.41-9.21-7.7,0-4.61,2.47-12.44,6.46-20.62h-3.5c-8.73,0-12.37-3.36-12.37-6.32,0-5.5,8.59-6.18,11.89-6.18,3.71,0,6.94.62,10.03,1.65,6.94-10.93,15.74-20.2,23.78-20.2,1.65,0,3.85.34,5.5,1.03l-5.43,25.42c1.03-.14,2.06-.27,3.16-.41l-.48,2.47ZM400.95,236.13c-5.36,0-8.59,1.24-8.59,3.43,0,1.93,2.82,3.85,8.8,3.85h2.75c1.1-2.06,2.27-4.12,3.5-6.18-2.34-.69-4.61-1.1-6.46-1.1ZM410.84,243.34c3.3-.07,6.53-.2,9.9-.41-2.68-1.44-5.43-2.75-8.11-3.85l-1.79,4.26ZM421.5,242.04l.69.41,4.74-22.26c-4.88,2.13-9.69,9.14-13.61,17.45,2.61,1.3,5.29,2.75,8.18,4.4Z"/><path class="cls-2" d="M454.83,218.95l-7.9,37.11c-.21,1.03-.34,1.65-.34,2.2,0,1.51.76,2.54,3.44,2.54s6.32-3.85,9.07-6.05h2.34c-3.16,3.16-10.93,12.3-16.29,12.3s-8.52-2.34-8.52-7.49c0-1.03.14-2.2.41-3.5l7.63-35.73,10.17-1.37Z"/><path class="cls-2" d="M489.85,232.7l-4.95,23.36c-.14.76-.28,1.51-.28,2.13,0,1.51.69,2.61,3.44,2.61s6.32-3.85,9.07-6.05h2.34c-3.16,3.16-10.93,12.3-16.29,12.3-4.67,0-7.83-1.79-8.45-5.77-3.23,3.02-6.94,5.77-9.9,5.77-5.29,0-8.59-2.34-8.59-7.49,0-1.03.14-2.2.41-3.5l4.95-23.36h9.9l-4.95,23.36c-.14.76-.28,1.51-.28,2.13,0,1.51.69,2.61,3.44,2.61,1.44,0,3.16-1.1,4.88-2.47.07-.69.21-1.44.41-2.27l4.95-23.36h9.9Z"/><path class="cls-2" d="M538.82,256.06c-.21.83-.34,1.72-.34,2.54,0,1.58.62,2.82,2.82,2.82,2.75,0,5.63-4.05,7.21-7.01h3.23c-3.16,3.71-9.35,12.65-14.71,12.65s-8.52-2.34-8.52-7.49c0-1.1.14-2.2.41-3.5l2.61-12.37c.14-.62.21-1.24.21-1.79,0-2.47-1.31-4.05-3.16-4.05-1.51,0-2.68.41-3.99,1.23.21.83.34,1.58.34,2.41,0,.48-.07.96-.14,1.44l-5.09,24.12h-9.96l4.95-23.36c.14-.62.21-1.24.21-1.79,0-2.47-1.31-4.05-3.16-4.05-1.65,0-2.82.48-4.19,1.44l-5.91,27.76h-9.89l7.28-34.36h9.89l-.76,3.64c2.75-1.99,5.91-3.64,8.86-3.64,2.54,0,5.29,1.85,6.8,4.54,3.02-2.4,6.67-4.54,10.03-4.54,3.78,0,7.9,3.98,7.9,8.66,0,.55-.07,1.03-.14,1.58l-2.82,13.12Z"/><path class="cls-2" d="M574.64,256.06c-.21.76-.34,1.51-.34,2.2,0,1.51.76,2.54,3.43,2.54s3.78-2.13,6.53-4.33h2.34c-3.16,3.16-8.38,10.58-13.74,10.58s-8.52-2.34-8.52-7.49c0-1.1.14-2.2.41-3.5l2.61-12.37c.14-.62.21-1.24.21-1.79,0-2.47-1.3-4.05-3.16-4.05-1.65,0-2.89.48-4.33,1.44l-5.84,27.76h-9.89l7.28-34.36h9.89l-.82,3.71c2.82-2.06,5.98-3.71,9-3.71,3.71,0,7.9,3.98,7.9,8.59,0,.55,0,1.1-.14,1.65l-2.82,13.12Z"/><path class="cls-2" d="M594.16,256.06c-.21.83-.34,1.58-.34,2.34,0,1.44.55,2.54,2.47,2.54.48,0,1.24,0,1.79-.2-1.92,5.91-4.81,6.32-7.15,6.32-4.88,0-7.01-3.23-7.01-7.56,0-1.1.14-2.27.41-3.44l4.95-23.36h9.83l-4.95,23.36ZM595.61,218.13c3.02,0,5.5,2.47,5.5,5.5s-2.47,5.43-5.5,5.43-5.43-2.41-5.43-5.43,2.41-5.5,5.43-5.5Z"/><path class="cls-2" d="M652.1,255.37c-3.64,10.03-12.78,12.09-19.24,12.09-7.01,0-15.05-3.43-15.05-17.52,0-14.98,4.88-34.43,23.16-34.43,6.39,0,11.96,2.54,11.96,9.21,0,3.64-1.31,6.32-4.81,6.32-1.1,0-2.61-.27-3.92-1.79,1.72-.48,3.02-3.92,3.02-5.64,0-1.1-.34-4.88-4.74-4.88-8.45,0-13.88,17.45-13.88,29.69,0,9,1.65,12.85,9.07,12.85,5.29,0,10.31-2.2,12.85-6.6l1.58.69Z"/><path class="cls-2" d="M679.17,256.06c-.21.83-.34,1.58-.34,2.2,0,1.51.76,2.54,3.43,2.54s6.32-3.85,9.07-6.05h2.34c-3.16,3.16-10.93,12.3-16.29,12.3s-8.52-2.34-8.52-7.49c0-1.1.14-2.2.41-3.5l2.61-12.37c.14-.62.21-1.24.21-1.79,0-2.47-1.31-4.05-3.16-4.05-1.65,0-2.89.48-4.26,1.44l-5.91,27.76h-9.89l9.96-46.73,10.17-1.37-3.71,17.39c2.82-1.99,5.98-3.64,8.93-3.64,3.71,0,7.9,3.98,7.9,8.59,0,.55,0,1.1-.14,1.65l-2.82,13.12Z"/><path class="cls-2" d="M720.29,232.7l-4.95,23.36c-.14.76-.27,1.51-.27,2.13,0,1.51.69,2.61,3.44,2.61s6.32-3.85,9.07-6.05h2.34c-3.16,3.16-10.93,12.3-16.29,12.3-4.47,0-7.49-1.65-8.38-5.22-2.06,2.82-5.15,5.64-9.35,5.64-6.6,0-8.52-4.67-8.52-8.73,0-11.82,4.26-25.98,18-25.98,1.65,0,3.37.69,4.6,1.72l.41-1.79h9.89ZM696.65,256.88c0,4.12,2.27,4.88,3.99,4.88,1.58,0,3.09-1.51,4.4-3.43.07-.69.21-1.44.41-2.27l3.85-18.21c-1.1-.96-2.4-1.24-3.37-1.24-5.15,0-9.28,10.93-9.28,20.27Z"/><path class="cls-2" d="M739.64,232.7l-.76,3.43c2.47-1.92,5.22-3.43,8.11-3.43,3.09,0,4.95,1.79,4.95,4.4,0,2.4-1.79,5.36-5.15,5.36-3.85,0-1.92-4.54-3.99-4.54s-3.16.76-4.74,2.2l-5.7,26.94h-9.89l7.28-34.36h9.89Z"/><path class="cls-2" d="M762.64,232.7l-4.95,23.36c-.14.76-.28,1.51-.28,2.13,0,1.51.69,2.61,3.44,2.61s6.32-3.85,9.07-6.05h2.34c-3.16,3.16-10.93,12.3-16.29,12.3s-8.59-2.34-8.59-7.49c0-1.03.14-2.2.41-3.5l4.95-23.36h9.89ZM759.48,218.13c3.02,0,5.5,2.47,5.5,5.5s-2.47,5.43-5.5,5.43-5.43-2.41-5.43-5.43,2.4-5.5,5.43-5.5Z"/><path class="cls-2" d="M784.7,221.84s-1.03,4.67-2.34,10.86h4.12l-.55,2.75h-4.12c-4.74,21.72-4.67,22.4-4.67,22.75,0,1.58.69,2.61,3.44,2.61s6.32-3.85,9.07-6.05h2.34c-3.16,3.16-10.93,12.3-16.29,12.3s-8.52-2.34-8.52-7.49c0-3.64,3.57-18.21,4.74-24.12h-2.27l.55-2.75h2.27l2.06-9.48,10.17-1.37Z"/><path class="cls-2" d="M804.72,232.7l-5.02,23.36c-.2.76-.34,1.51-.34,2.2,0,1.51.76,2.54,3.44,2.54,1.58,0,3.43-1.24,5.22-2.75l5.36-25.35h9.96l-8.38,39.86c-2.06,9.83-7.97,11.68-12.51,11.68-4.19,0-8.11-2.96-8.11-7.42,0-6.39,5.36-8.38,11.89-10.31l1.03-4.74c-3.09,2.82-6.6,5.29-9.35,5.29-5.36,0-8.52-2.34-8.52-7.49,0-1.1.14-2.2.41-3.5l4.81-23.36h10.1ZM800.87,278.12c1.37,0,3.23-1.3,4.06-5.36l.82-4.05c-4.33,1.44-7.63,3.43-7.63,7.15,0,.96,1.24,2.27,2.75,2.27Z"/><path class="cls-2" d="M433.76,303.2c-2.69-3.63-7.06-5.58-11.57-5.58-8.07,0-13.52,6.19-13.52,14.05s5.52,13.79,13.72,13.79c4.3,0,8.61-2.08,11.37-5.38v15.81c-4.37,1.35-7.53,2.36-11.64,2.36-7.06,0-13.79-2.69-19.03-7.47-5.58-5.05-8.14-11.64-8.14-19.17,0-6.93,2.62-13.58,7.47-18.56,4.98-5.11,12.18-8.2,19.3-8.2,4.24,0,8.14.94,12.04,2.55v15.81Z"/><path class="cls-2" d="M474.03,305.75v-19.57h13.19v50.71h-13.19v-20.78h-19.03v20.78h-13.18v-50.71h13.18v19.57h19.03Z"/><path class="cls-2" d="M508.05,328.08l-3.5,8.81h-13.99l19.5-50.71h14.39l19.1,50.71h-14.06l-3.29-8.81h-18.16ZM517.26,301.85h-.13l-5.45,16.14h10.96l-5.38-16.14Z"/><path class="cls-2" d="M560.42,325.73h15.81v11.17h-28.99v-50.71h13.18v39.55Z"/><path class="cls-2" d="M593.1,325.73h15.81v11.17h-28.99v-50.71h13.18v39.55Z"/><path class="cls-2" d="M625.71,297.34v8.47h14.87v11.17h-14.87v8.74h15.67v11.17h-28.85v-50.71h28.85v11.16h-15.67Z"/><path class="cls-2" d="M649.04,286.18h13.18l24.15,31h.13v-31h13.18v50.71h-13.18l-24.15-31.07h-.13v31.07h-13.18v-50.71Z"/><path class="cls-2" d="M758.72,308.58c-.13,7.4-.67,13.72-5.18,20.04-4.98,6.93-12.44,9.95-20.92,9.95-15.94,0-27.04-10.83-27.04-26.77s11.17-27.31,27.51-27.31c10.43,0,18.5,4.71,22.87,14.19l-12.51,5.25c-1.82-4.84-5.65-8.07-10.96-8.07-8.68,0-13.18,8.27-13.18,16.01s4.71,15.87,13.38,15.87c5.72,0,10.09-2.96,10.63-8.81h-10.76v-10.36h26.16Z"/><path class="cls-2" d="M777.2,297.34v8.47h14.87v11.17h-14.87v8.74h15.67v11.17h-28.85v-50.71h28.85v11.16h-15.67Z"/></svg>