<?xml version="1.0" encoding="UTF-8"?>
<svg id="Layer_1" xmlns="http://www.w3.org/2000/svg" viewBox="0 0 566.37 372.21">
  <defs>
    <style>
      .cls-1 {
        letter-spacing: 0em;
      }

      .cls-2, .cls-3, .cls-4, .cls-5 {
        fill: #f15a29;
      }

      .cls-3 {
        font-size: 20.47px;
      }

      .cls-3, .cls-5 {
        font-family: Raleway-Medium, Raleway;
        font-weight: 500;
      }

      .cls-6 {
        fill: #fff;
      }

      .cls-4 {
        font-family: Raleway-Bold, Raleway;
        font-size: 44.21px;
        font-weight: 700;
      }

      .cls-5 {
        font-size: 12.79px;
      }

      .cls-7 {
        letter-spacing: -.04em;
      }

      .cls-8 {
        letter-spacing: -.03em;
      }

      .cls-9 {
        letter-spacing: -.03em;
      }
    </style>
  </defs>
  <path class="cls-2" d="M63.94,61v79.92c0,8.55-7.81,17.84-17.84,17.84v143.11c0,20.08-27.88,20.08-27.88,0v-143.11c-9.66,0-18.21-7.8-18.21-18.96V61c0-6.69,10.04-7.07,10.04.37v58.36h8.18v-59.1c0-5.95,9.67-6.69,9.67.37v58.73h8.55v-58.73c0-6.69,9.29-7.07,9.29,0v58.73h8.55v-58.73c0-6.69,9.67-7.07,9.67,0Z"/>
  <path class="cls-2" d="M566.37,79.21v222.29c0,20.08-27.5,19.7-27.5,0v-88.09h-14.87V79.21c0-31.22,42.37-31.22,42.37,0Z"/>
  <circle class="cls-2" cx="290.31" cy="186.1" r="186.1"/>
  <g>
    <circle class="cls-6" cx="290.31" cy="186.1" r="168.02"/>
    <path class="cls-2" d="M432.61,275.4l.09-21.63h-3.24v-1.62h-1.62v-6.48l-4.05-5.67-4.86-.81-18.64,2.43-2.43,4.86h-1.62v20.26h-8.1v-20.26l-4.05-4.86-5.67-.81h-6.48l-10.53,1.62-2.43,4.86-1.62.81v12.15h-7.29l-3.24,1.62v9.72h-3.24v-16.21h-9.72v-2.43l-4.05-.81v-8.1l-4.05-1.62v-26.74l-25.12-1.62h-1.62l-10.53,3.24v47l-4.05.81-2.43-.81v-4.86l2.43-1.62h-1.62v-2.43s-10.53-.81-11.34-.81-8.91,1.62-8.91,1.62h-1.62v-12.15l-25.12-.81-6.48,1.62v4.05l-3.24.81v1.62l-3.24.81v21.07h-7.29v-12.15h-2.43v-1.62h-2.43v-.81h-4.05l-4.05.81v-1.62h-4.05v2.43l-7.29,2.43v-1.62h-2.43v-1.62h-2.43v1.62l-1.62.81v.81h-.81v-.81h-3.24v.81h-.81v-6.48l-.81-2.43v-4.05l-2.84-2.84h-17.42l-2.43,1.22v1.62h-.81l-2.43.81v4.05l-.81,2.43v8.77l-10.68-1.38c28.16,53.34,84.14,89.71,148.65,89.71,59.97,0,112.56-31.44,142.29-78.72Z"/>
    <path class="cls-6" d="M290.31,355.95c-93.65,0-169.84-76.19-169.84-169.84S196.66,16.26,290.31,16.26s169.84,76.19,169.84,169.84-76.19,169.84-169.84,169.84ZM290.31,19.91c-91.64,0-166.19,74.55-166.19,166.19s74.55,166.19,166.19,166.19,166.19-74.55,166.19-166.19S381.95,19.91,290.31,19.91Z"/>
  </g>
  <text class="cls-3" transform="translate(190.51 85.49)"><tspan x="0" y="0">THE</tspan></text>
  <text class="cls-4" transform="translate(236.62 91.23)"><tspan class="cls-7" x="0" y="0">1</tspan><tspan class="cls-1" x="20.07" y="0">2</tspan></text>
  <text class="cls-3" transform="translate(302.29 85.5)"><tspan x="0" y="0">ANN</tspan><tspan class="cls-9" x="45.38" y="0">U</tspan><tspan x="60.23" y="0">A</tspan><tspan class="cls-8" x="74.09" y="0">L</tspan></text>
  <text class="cls-5" transform="translate(279.45 74.74)"><tspan x="0" y="0">TH</tspan></text>
  <g>
    <g>
      <path class="cls-2" d="M172.34,138.48l-2.16.23-3.23,15.25h-6.63l3.09-14.6c-2.67.28-5.34.46-7.97.6-2.3,6.26-3.73,12.76-3.73,16.63,0,2.35.6,2.17.64,2.58-3.18-.18-6.17-.28-6.17-5.16,0-3.09,1.66-8.34,4.33-13.82h-2.35c-5.85,0-8.29-2.26-8.29-4.24,0-3.69,5.76-4.15,7.97-4.15,2.49,0,4.65.41,6.73,1.11,4.65-7.32,10.55-13.54,15.94-13.54,1.11,0,2.58.23,3.69.69l-3.64,17.04c.69-.09,1.38-.18,2.12-.28l-.32,1.66ZM149.54,133.23c-3.59,0-5.76.83-5.76,2.3,0,1.29,1.89,2.58,5.9,2.58h1.84c.74-1.38,1.52-2.76,2.35-4.15-1.57-.46-3.09-.74-4.33-.74ZM156.17,138.07c2.21-.04,4.38-.14,6.63-.28-1.8-.97-3.64-1.84-5.44-2.58l-1.2,2.86ZM163.31,137.19l.46.28,3.18-14.93c-3.27,1.43-6.5,6.13-9.12,11.7,1.75.87,3.55,1.84,5.48,2.95Z"/>
      <path class="cls-2" d="M185.66,121.71l-5.3,24.88c-.14.69-.23,1.11-.23,1.48,0,1.01.51,1.7,2.3,1.7s4.24-2.58,6.08-4.05h1.57c-2.12,2.12-7.32,8.25-10.92,8.25s-5.71-1.57-5.71-5.02c0-.69.09-1.47.28-2.35l5.11-23.95,6.82-.92Z"/>
      <path class="cls-2" d="M209.13,130.93l-3.32,15.66c-.09.51-.18,1.02-.18,1.43,0,1.01.46,1.75,2.3,1.75s4.24-2.58,6.08-4.05h1.57c-2.12,2.12-7.32,8.25-10.92,8.25-3.13,0-5.25-1.2-5.67-3.87-2.16,2.03-4.65,3.87-6.63,3.87-3.55,0-5.76-1.57-5.76-5.02,0-.69.09-1.47.28-2.35l3.32-15.66h6.63l-3.32,15.66c-.09.51-.18,1.02-.18,1.43,0,1.01.46,1.75,2.3,1.75.97,0,2.12-.74,3.27-1.66.05-.46.14-.97.28-1.52l3.32-15.66h6.63Z"/>
      <path class="cls-2" d="M241.96,146.59c-.14.55-.23,1.15-.23,1.71,0,1.06.41,1.89,1.89,1.89,1.84,0,3.78-2.72,4.84-4.7h2.17c-2.12,2.49-6.27,8.48-9.86,8.48s-5.71-1.57-5.71-5.02c0-.74.09-1.47.28-2.35l1.75-8.29c.09-.41.14-.83.14-1.2,0-1.66-.88-2.72-2.12-2.72-1.01,0-1.8.28-2.67.83.14.55.23,1.06.23,1.61,0,.32-.05.64-.09.97l-3.41,16.17h-6.68l3.32-15.66c.09-.41.14-.83.14-1.2,0-1.66-.88-2.72-2.12-2.72-1.11,0-1.89.32-2.81.97l-3.96,18.61h-6.63l4.88-23.03h6.63l-.51,2.44c1.84-1.34,3.96-2.44,5.94-2.44,1.7,0,3.55,1.24,4.56,3.04,2.03-1.61,4.47-3.04,6.72-3.04,2.53,0,5.3,2.67,5.3,5.8,0,.37-.05.69-.09,1.06l-1.89,8.8Z"/>
      <path class="cls-2" d="M265.98,146.59c-.14.51-.23,1.02-.23,1.48,0,1.01.51,1.7,2.3,1.7s2.53-1.43,4.38-2.9h1.57c-2.12,2.12-5.62,7.09-9.21,7.09s-5.71-1.57-5.71-5.02c0-.74.09-1.47.28-2.35l1.75-8.29c.09-.41.14-.83.14-1.2,0-1.66-.87-2.72-2.12-2.72-1.11,0-1.93.32-2.9.97l-3.92,18.61h-6.63l4.88-23.03h6.63l-.55,2.49c1.89-1.38,4.01-2.49,6.03-2.49,2.49,0,5.3,2.67,5.3,5.76,0,.37,0,.74-.09,1.11l-1.89,8.8Z"/>
      <path class="cls-2" d="M279.06,146.59c-.14.55-.23,1.06-.23,1.57,0,.97.37,1.7,1.66,1.7.32,0,.83,0,1.2-.14-1.29,3.96-3.23,4.24-4.79,4.24-3.27,0-4.7-2.17-4.7-5.07,0-.74.09-1.52.28-2.3l3.32-15.66h6.59l-3.32,15.66ZM280.03,121.16c2.03,0,3.68,1.66,3.68,3.68s-1.66,3.64-3.68,3.64-3.64-1.61-3.64-3.64,1.61-3.68,3.64-3.68Z"/>
      <path class="cls-2" d="M317.9,146.13c-2.44,6.73-8.57,8.11-12.9,8.11-4.7,0-10.09-2.3-10.09-11.75,0-10.04,3.27-23.08,15.52-23.08,4.28,0,8.02,1.7,8.02,6.17,0,2.44-.88,4.24-3.22,4.24-.74,0-1.75-.18-2.63-1.2,1.15-.32,2.03-2.63,2.03-3.78,0-.74-.23-3.27-3.18-3.27-5.67,0-9.31,11.7-9.31,19.9,0,6.03,1.11,8.61,6.08,8.61,3.55,0,6.91-1.47,8.61-4.42l1.06.46Z"/>
      <path class="cls-2" d="M336.05,146.59c-.14.55-.23,1.06-.23,1.48,0,1.01.51,1.7,2.3,1.7s4.24-2.58,6.08-4.05h1.57c-2.12,2.12-7.32,8.25-10.92,8.25s-5.71-1.57-5.71-5.02c0-.74.09-1.47.28-2.35l1.75-8.29c.09-.41.14-.83.14-1.2,0-1.66-.88-2.72-2.12-2.72-1.11,0-1.93.32-2.86.97l-3.96,18.61h-6.63l6.68-31.33,6.82-.92-2.49,11.66c1.89-1.34,4.01-2.44,5.99-2.44,2.49,0,5.3,2.67,5.3,5.76,0,.37,0,.74-.09,1.11l-1.89,8.8Z"/>
      <path class="cls-2" d="M363.61,130.93l-3.32,15.66c-.09.51-.18,1.02-.18,1.43,0,1.01.46,1.75,2.3,1.75s4.24-2.58,6.08-4.05h1.57c-2.12,2.12-7.32,8.25-10.92,8.25-2.99,0-5.02-1.11-5.62-3.5-1.38,1.89-3.45,3.78-6.27,3.78-4.42,0-5.71-3.13-5.71-5.85,0-7.92,2.86-17.41,12.07-17.41,1.11,0,2.26.46,3.09,1.15l.28-1.2h6.63ZM347.76,147.14c0,2.76,1.52,3.27,2.67,3.27,1.06,0,2.07-1.01,2.95-2.3.05-.46.14-.97.28-1.52l2.58-12.21c-.74-.65-1.61-.83-2.26-.83-3.45,0-6.22,7.32-6.22,13.59Z"/>
      <path class="cls-2" d="M376.58,130.93l-.51,2.3c1.66-1.29,3.5-2.3,5.44-2.3,2.07,0,3.32,1.2,3.32,2.95,0,1.61-1.2,3.59-3.45,3.59-2.58,0-1.29-3.04-2.67-3.04s-2.12.51-3.18,1.48l-3.82,18.06h-6.63l4.88-23.03h6.63Z"/>
      <path class="cls-2" d="M392,130.93l-3.32,15.66c-.09.51-.18,1.02-.18,1.43,0,1.01.46,1.75,2.3,1.75s4.24-2.58,6.08-4.05h1.57c-2.12,2.12-7.32,8.25-10.92,8.25s-5.76-1.57-5.76-5.02c0-.69.09-1.47.28-2.35l3.32-15.66h6.63ZM389.89,121.16c2.03,0,3.69,1.66,3.69,3.68s-1.66,3.64-3.69,3.64-3.64-1.61-3.64-3.64,1.61-3.68,3.64-3.68Z"/>
      <path class="cls-2" d="M406.79,123.65s-.69,3.13-1.57,7.28h2.76l-.37,1.84h-2.76c-3.18,14.56-3.13,15.02-3.13,15.25,0,1.06.46,1.75,2.3,1.75s4.24-2.58,6.08-4.05h1.57c-2.12,2.12-7.32,8.25-10.92,8.25s-5.71-1.57-5.71-5.02c0-2.44,2.4-12.21,3.18-16.17h-1.52l.37-1.84h1.52l1.38-6.36,6.82-.92Z"/>
      <path class="cls-2" d="M420.21,130.93l-3.36,15.66c-.14.51-.23,1.02-.23,1.48,0,1.01.51,1.7,2.3,1.7,1.06,0,2.3-.83,3.5-1.84l3.59-17h6.68l-5.62,26.72c-1.38,6.59-5.34,7.83-8.38,7.83-2.81,0-5.44-1.98-5.44-4.98,0-4.28,3.59-5.62,7.97-6.91l.69-3.18c-2.07,1.89-4.42,3.55-6.27,3.55-3.59,0-5.71-1.57-5.71-5.02,0-.74.09-1.47.28-2.35l3.23-15.66h6.77ZM417.63,161.38c.92,0,2.17-.87,2.72-3.59l.55-2.72c-2.9.97-5.11,2.3-5.11,4.79,0,.65.83,1.52,1.84,1.52Z"/>
    </g>
    <g>
      <path class="cls-2" d="M171.53,178.19c-1.8-2.44-4.73-3.74-7.76-3.74-5.41,0-9.06,4.15-9.06,9.42s3.7,9.24,9.2,9.24c2.89,0,5.77-1.4,7.62-3.61v10.6c-2.93.9-5.05,1.58-7.8,1.58-4.73,0-9.24-1.8-12.76-5-3.74-3.38-5.46-7.8-5.46-12.85,0-4.64,1.76-9.11,5-12.44,3.34-3.43,8.16-5.5,12.94-5.5,2.84,0,5.46.63,8.07,1.71v10.6Z"/>
      <path class="cls-2" d="M198.53,179.9v-13.12h8.84v34h-8.84v-13.93h-12.76v13.93h-8.84v-34h8.84v13.12h12.76Z"/>
      <path class="cls-2" d="M221.33,194.87l-2.34,5.91h-9.38l13.07-34h9.65l12.81,34h-9.42l-2.21-5.91h-12.17ZM227.51,177.29h-.09l-3.65,10.82h7.35l-3.61-10.82Z"/>
      <path class="cls-2" d="M256.44,193.3h10.6v7.49h-19.43v-34h8.84v26.51Z"/>
      <path class="cls-2" d="M278.35,193.3h10.6v7.49h-19.43v-34h8.84v26.51Z"/>
      <path class="cls-2" d="M300.21,174.27v5.68h9.97v7.49h-9.97v5.86h10.51v7.49h-19.34v-34h19.34v7.48h-10.51Z"/>
      <path class="cls-2" d="M315.85,166.78h8.84l16.19,20.78h.09v-20.78h8.84v34h-8.84l-16.19-20.83h-.09v20.83h-8.84v-34Z"/>
      <path class="cls-2" d="M389.38,181.8c-.09,4.96-.45,9.2-3.47,13.44-3.34,4.64-8.34,6.67-14.02,6.67-10.69,0-18.13-7.26-18.13-17.94s7.49-18.31,18.44-18.31c6.99,0,12.4,3.16,15.33,9.51l-8.38,3.52c-1.22-3.25-3.79-5.41-7.35-5.41-5.82,0-8.84,5.55-8.84,10.73s3.16,10.64,8.97,10.64c3.83,0,6.76-1.98,7.13-5.91h-7.22v-6.94h17.54Z"/>
      <path class="cls-2" d="M401.76,174.27v5.68h9.97v7.49h-9.97v5.86h10.51v7.49h-19.34v-34h19.34v7.48h-10.51Z"/>
    </g>
  </g>
</svg>