<?xml version="1.0" encoding="UTF-8"?>
<svg id="Layer_6" xmlns="http://www.w3.org/2000/svg" viewBox="0 0 630 630">
  <defs>
    <style>
      .cls-1 {
        font-size: 21.68px;
      }

      .cls-1, .cls-2 {
        font-family: Raleway-Medium, Raleway;
        font-weight: 500;
      }

      .cls-1, .cls-2, .cls-3, .cls-4 {
        fill: #f05a28;
      }

      .cls-2 {
        font-size: 34.67px;
      }

      .cls-5 {
        fill: #fff;
      }

      .cls-4 {
        font-family: Raleway-Bold, Raleway;
        font-size: 74.89px;
        font-weight: 700;
      }

      .cls-6 {
        letter-spacing: 0em;
      }

      .cls-7 {
        letter-spacing: -.04em;
      }

      .cls-8 {
        letter-spacing: -.03em;
      }

      .cls-9 {
        letter-spacing: -.03em;
      }
    </style>
  </defs>
  <circle class="cls-3" cx="315" cy="315" r="315.28"/>
  <g>
    <circle class="cls-5" cx="315" cy="315" r="284.64"/>
    <path class="cls-3" d="M556.06,466.28l.15-36.64h-5.49v-2.75h-2.75v-10.98l-6.86-9.61-8.24-1.37-31.57,4.12-4.12,8.24h-2.75v34.32h-13.73v-34.32l-6.86-8.24-9.61-1.37h-10.98l-17.85,2.75-4.12,8.24-2.75,1.37v20.59h-12.35l-5.49,2.75v16.47h-5.49v-27.45h-16.47v-4.12l-6.86-1.37v-13.73l-6.86-2.75v-45.3l-42.55-2.74h-2.75l-17.84,5.49v79.62l-6.86,1.37-4.12-1.37v-8.24l4.12-2.74h-2.75v-4.12s-17.84-1.37-19.22-1.37-15.1,2.74-15.1,2.74h-2.75v-20.59l-42.56-1.37-10.98,2.74v6.86l-5.49,1.37v2.75l-5.49,1.37v35.69h-12.36v-20.59h-4.12v-2.75h-4.12v-1.37h-6.86l-6.87,1.37v-2.74h-6.86v4.12l-12.35,4.12v-2.75h-4.12v-2.75h-4.12v2.75l-2.75,1.37v1.37h-1.37v-1.37h-5.49v1.37h-1.37v-10.98l-1.37-4.12v-6.86l-4.8-4.8h-29.51l-4.12,2.06v2.74h-1.37l-4.12,1.37v6.86l-1.37,4.12v14.86l-18.09-2.35c47.7,90.36,142.55,151.98,251.83,151.98,101.59,0,190.7-53.27,241.06-133.35Z"/>
    <path class="cls-5" d="M315,602.73c-158.66,0-287.73-129.08-287.73-287.73S156.34,27.27,315,27.27s287.73,129.08,287.73,287.73-129.08,287.73-287.73,287.73ZM315,33.46c-155.24,0-281.54,126.3-281.54,281.54s126.3,281.54,281.54,281.54,281.54-126.3,281.54-281.54S470.24,33.46,315,33.46Z"/>
  </g>
  <text class="cls-2" transform="translate(145.93 144.55)"><tspan x="0" y="0">THE</tspan></text>
  <text class="cls-4" transform="translate(224.03 154.28)"><tspan class="cls-7" x="0" y="0">1</tspan><tspan class="cls-6" x="34" y="0">2</tspan></text>
  <text class="cls-2" transform="translate(335.29 144.57)"><tspan x="0" y="0">ANN</tspan><tspan class="cls-9" x="76.87" y="0">U</tspan><tspan x="102.04" y="0">A</tspan><tspan class="cls-8" x="125.52" y="0">L</tspan></text>
  <text class="cls-1" transform="translate(296.6 126.34)"><tspan x="0" y="0">TH</tspan></text>
  <g>
    <g>
      <path class="cls-3" d="M115.14,234.33l-3.67.39-5.46,25.83h-11.24l5.23-24.74c-4.53.47-9.05.78-13.5,1.01-3.9,10.61-6.32,21.62-6.32,28.17,0,3.98,1.01,3.67,1.09,4.37-5.38-.31-10.46-.47-10.46-8.74,0-5.23,2.81-14.13,7.34-23.42h-3.98c-9.91,0-14.05-3.82-14.05-7.18,0-6.24,9.76-7.02,13.5-7.02,4.21,0,7.88.7,11.39,1.87,7.88-12.41,17.87-22.94,27-22.94,1.87,0,4.37.39,6.24,1.17l-6.17,28.87c1.17-.16,2.34-.31,3.59-.47l-.55,2.81ZM76.51,225.43c-6.09,0-9.76,1.41-9.76,3.9,0,2.19,3.2,4.37,9.99,4.37h3.12c1.25-2.34,2.58-4.68,3.98-7.02-2.65-.78-5.23-1.25-7.34-1.25ZM87.75,233.62c3.75-.08,7.41-.23,11.24-.47-3.04-1.64-6.17-3.12-9.21-4.37l-2.03,4.84ZM99.85,232.14l.78.47,5.38-25.28c-5.54,2.42-11,10.38-15.45,19.82,2.96,1.48,6.01,3.12,9.29,4.99Z"/>
      <path class="cls-3" d="M137.71,205.92l-8.98,42.14c-.23,1.17-.39,1.88-.39,2.5,0,1.72.86,2.89,3.9,2.89s7.18-4.37,10.3-6.87h2.65c-3.59,3.59-12.41,13.97-18.5,13.97s-9.68-2.65-9.68-8.51c0-1.17.16-2.5.47-3.98l8.66-40.58,11.55-1.56Z"/>
      <path class="cls-3" d="M177.48,221.53l-5.62,26.53c-.16.86-.31,1.72-.31,2.42,0,1.72.78,2.97,3.9,2.97s7.18-4.37,10.3-6.87h2.65c-3.59,3.59-12.41,13.97-18.5,13.97-5.31,0-8.9-2.03-9.6-6.56-3.67,3.43-7.88,6.56-11.24,6.56-6.01,0-9.75-2.65-9.75-8.51,0-1.17.16-2.5.47-3.98l5.62-26.53h11.24l-5.62,26.53c-.16.86-.31,1.72-.31,2.42,0,1.72.78,2.97,3.9,2.97,1.64,0,3.59-1.25,5.54-2.81.08-.78.23-1.64.47-2.58l5.62-26.53h11.24Z"/>
      <path class="cls-3" d="M233.09,248.06c-.23.94-.39,1.95-.39,2.89,0,1.79.7,3.2,3.2,3.2,3.12,0,6.4-4.6,8.19-7.96h3.67c-3.59,4.22-10.61,14.36-16.7,14.36s-9.68-2.65-9.68-8.51c0-1.25.16-2.5.47-3.98l2.96-14.05c.16-.7.24-1.41.24-2.03,0-2.81-1.48-4.6-3.59-4.6-1.72,0-3.04.47-4.53,1.4.23.94.39,1.8.39,2.73,0,.54-.08,1.09-.16,1.64l-5.78,27.39h-11.32l5.62-26.53c.16-.7.24-1.41.24-2.03,0-2.81-1.48-4.6-3.59-4.6-1.87,0-3.2.54-4.76,1.64l-6.71,31.53h-11.24l8.27-39.02h11.24l-.86,4.14c3.12-2.26,6.71-4.14,10.07-4.14,2.89,0,6.01,2.1,7.73,5.15,3.43-2.73,7.57-5.15,11.39-5.15,4.29,0,8.98,4.52,8.98,9.83,0,.63-.08,1.17-.16,1.8l-3.2,14.9Z"/>
      <path class="cls-3" d="M273.77,248.06c-.23.86-.39,1.72-.39,2.5,0,1.72.86,2.89,3.9,2.89s4.29-2.42,7.41-4.92h2.65c-3.59,3.59-9.52,12.02-15.61,12.02s-9.68-2.65-9.68-8.51c0-1.25.16-2.5.47-3.98l2.97-14.05c.16-.7.23-1.41.23-2.03,0-2.81-1.48-4.6-3.59-4.6-1.87,0-3.28.54-4.92,1.64l-6.63,31.53h-11.24l8.27-39.02h11.24l-.94,4.21c3.2-2.34,6.79-4.21,10.22-4.21,4.21,0,8.98,4.52,8.98,9.75,0,.62,0,1.25-.16,1.87l-3.2,14.9Z"/>
      <path class="cls-3" d="M295.94,248.06c-.24.94-.39,1.8-.39,2.65,0,1.64.62,2.89,2.81,2.89.55,0,1.4,0,2.03-.23-2.19,6.71-5.46,7.18-8.12,7.18-5.54,0-7.96-3.67-7.96-8.58,0-1.25.16-2.58.47-3.9l5.62-26.53h11.16l-5.62,26.53ZM297.58,204.98c3.43,0,6.24,2.81,6.24,6.24s-2.81,6.17-6.24,6.17-6.17-2.73-6.17-6.17,2.73-6.24,6.17-6.24Z"/>
      <path class="cls-3" d="M361.74,247.28c-4.14,11.39-14.51,13.73-21.85,13.73-7.96,0-17.09-3.9-17.09-19.9,0-17.01,5.54-39.1,26.3-39.1,7.26,0,13.58,2.89,13.58,10.46,0,4.14-1.48,7.18-5.46,7.18-1.25,0-2.97-.31-4.45-2.03,1.95-.55,3.43-4.45,3.43-6.4,0-1.25-.39-5.54-5.38-5.54-9.6,0-15.76,19.82-15.76,33.71,0,10.22,1.87,14.59,10.3,14.59,6.01,0,11.71-2.5,14.59-7.49l1.79.78Z"/>
      <path class="cls-3" d="M392.48,248.06c-.23.94-.39,1.8-.39,2.5,0,1.72.86,2.89,3.9,2.89s7.18-4.37,10.3-6.87h2.65c-3.59,3.59-12.41,13.97-18.5,13.97s-9.68-2.65-9.68-8.51c0-1.25.16-2.5.47-3.98l2.96-14.05c.16-.7.24-1.41.24-2.03,0-2.81-1.48-4.6-3.59-4.6-1.87,0-3.28.54-4.84,1.64l-6.71,31.53h-11.24l11.32-53.07,11.55-1.56-4.21,19.75c3.2-2.26,6.79-4.14,10.15-4.14,4.22,0,8.98,4.52,8.98,9.75,0,.62,0,1.25-.16,1.87l-3.2,14.9Z"/>
      <path class="cls-3" d="M439.18,221.53l-5.62,26.53c-.16.86-.31,1.72-.31,2.42,0,1.72.78,2.97,3.9,2.97s7.18-4.37,10.3-6.87h2.65c-3.59,3.59-12.41,13.97-18.5,13.97-5.07,0-8.51-1.87-9.52-5.93-2.34,3.2-5.85,6.4-10.61,6.4-7.49,0-9.68-5.31-9.68-9.91,0-13.42,4.84-29.5,20.45-29.5,1.87,0,3.82.78,5.23,1.95l.47-2.03h11.24ZM412.33,249c0,4.68,2.58,5.54,4.53,5.54,1.8,0,3.51-1.72,4.99-3.9.08-.78.24-1.64.47-2.58l4.37-20.68c-1.25-1.09-2.73-1.41-3.82-1.41-5.85,0-10.54,12.41-10.54,23.02Z"/>
      <path class="cls-3" d="M461.15,221.53l-.86,3.9c2.81-2.18,5.93-3.9,9.21-3.9,3.51,0,5.62,2.03,5.62,4.99,0,2.73-2.03,6.09-5.85,6.09-4.37,0-2.18-5.15-4.53-5.15s-3.59.86-5.39,2.5l-6.48,30.59h-11.24l8.27-39.02h11.24Z"/>
      <path class="cls-3" d="M487.28,221.53l-5.62,26.53c-.16.86-.31,1.72-.31,2.42,0,1.72.78,2.97,3.9,2.97s7.18-4.37,10.3-6.87h2.65c-3.59,3.59-12.41,13.97-18.5,13.97s-9.75-2.65-9.75-8.51c0-1.17.16-2.5.47-3.98l5.62-26.53h11.24ZM483.69,204.98c3.43,0,6.24,2.81,6.24,6.24s-2.81,6.17-6.24,6.17-6.16-2.73-6.16-6.17,2.73-6.24,6.16-6.24Z"/>
      <path class="cls-3" d="M512.33,209.2s-1.17,5.31-2.65,12.33h4.68l-.62,3.12h-4.68c-5.39,24.66-5.31,25.44-5.31,25.83,0,1.8.78,2.97,3.9,2.97s7.18-4.37,10.3-6.87h2.65c-3.59,3.59-12.41,13.97-18.5,13.97s-9.68-2.65-9.68-8.51c0-4.14,4.06-20.68,5.38-27.39h-2.58l.62-3.12h2.58l2.34-10.77,11.55-1.56Z"/>
      <path class="cls-3" d="M535.07,221.53l-5.7,26.53c-.23.86-.39,1.72-.39,2.5,0,1.72.86,2.89,3.9,2.89,1.79,0,3.9-1.41,5.93-3.12l6.09-28.79h11.32l-9.52,45.26c-2.34,11.16-9.05,13.27-14.21,13.27-4.76,0-9.21-3.36-9.21-8.43,0-7.26,6.09-9.52,13.5-11.71l1.17-5.39c-3.51,3.2-7.49,6.01-10.61,6.01-6.09,0-9.68-2.65-9.68-8.51,0-1.25.16-2.5.47-3.98l5.46-26.53h11.47ZM530.7,273.11c1.56,0,3.67-1.48,4.61-6.09l.93-4.6c-4.92,1.64-8.66,3.9-8.66,8.12,0,1.09,1.4,2.58,3.12,2.58Z"/>
    </g>
    <g>
      <path class="cls-3" d="M113.77,301.6c-3.06-4.13-8.02-6.34-13.14-6.34-9.16,0-15.35,7.03-15.35,15.96s6.26,15.66,15.58,15.66c4.89,0,9.78-2.37,12.91-6.11v17.95c-4.96,1.53-8.55,2.67-13.21,2.67-8.02,0-15.66-3.06-21.62-8.48-6.34-5.73-9.24-13.21-9.24-21.77,0-7.86,2.98-15.43,8.48-21.08,5.65-5.8,13.83-9.32,21.92-9.32,4.81,0,9.24,1.07,13.67,2.9v17.95Z"/>
      <path class="cls-3" d="M159.51,304.5v-22.23h14.97v57.59h-14.97v-23.6h-21.62v23.6h-14.97v-57.59h14.97v22.23h21.62Z"/>
      <path class="cls-3" d="M198.14,329.86l-3.97,10.01h-15.89l22.15-57.59h16.35l21.7,57.59h-15.96l-3.74-10.01h-20.62ZM208.61,300.07h-.15l-6.18,18.33h12.45l-6.11-18.33Z"/>
      <path class="cls-3" d="M257.63,327.18h17.95v12.68h-32.92v-57.59h14.97v44.91Z"/>
      <path class="cls-3" d="M294.74,327.18h17.95v12.68h-32.92v-57.59h14.97v44.91Z"/>
      <path class="cls-3" d="M331.77,294.95v9.62h16.88v12.68h-16.88v9.93h17.8v12.68h-32.77v-57.59h32.77v12.68h-17.8Z"/>
      <path class="cls-3" d="M358.26,282.27h14.97l27.42,35.21h.15v-35.21h14.97v57.59h-14.97l-27.42-35.29h-.15v35.29h-14.97v-57.59Z"/>
      <path class="cls-3" d="M482.83,307.71c-.15,8.4-.76,15.58-5.88,22.76-5.65,7.87-14.13,11.31-23.76,11.31-18.1,0-30.71-12.3-30.71-30.4s12.68-31.02,31.24-31.02c11.84,0,21.01,5.35,25.97,16.12l-14.21,5.96c-2.06-5.5-6.42-9.17-12.45-9.17-9.85,0-14.97,9.4-14.97,18.18s5.35,18.03,15.2,18.03c6.49,0,11.46-3.36,12.07-10.01h-12.22v-11.76h29.71Z"/>
      <path class="cls-3" d="M503.81,294.95v9.62h16.88v12.68h-16.88v9.93h17.8v12.68h-32.77v-57.59h32.77v12.68h-17.8Z"/>
    </g>
  </g>
</svg>